<svg width="506" height="292" viewBox="0 0 506 292" fill="none" xmlns="http://www.w3.org/2000/svg">
<path d="M315.125 161.439C311.233 164.133 306.043 164.931 301.452 163.535C300.953 163.335 300.354 163.136 300.155 162.637C299.756 161.938 300.354 161.14 300.454 160.342C300.754 158.047 297.46 157.049 296.462 155.054C296.063 154.256 296.063 153.258 295.963 152.36C295.364 144.278 291.172 137.095 287.579 129.811C287.28 129.313 287.08 128.714 287.18 128.115C287.28 127.517 287.979 127.018 288.478 127.317C288.078 128.714 288.977 130.31 290.274 130.709C290.873 128.415 291.172 125.322 289.076 124.124C288.378 123.725 287.48 123.625 286.681 123.625C283.487 123.426 280.194 123.625 277 124.124C276.501 124.224 275.902 124.324 275.403 124.025C275.004 123.825 274.805 123.326 274.505 122.927C273.707 121.83 271.611 121.331 270.513 122.229C269.315 123.226 270.214 125.421 267.818 125.721C266.521 125.92 265.223 125.222 264.026 124.523C262.728 123.825 261.531 123.027 260.533 121.929C260.233 121.53 259.934 121.131 259.535 120.832C258.736 120.333 257.638 120.632 256.64 120.533C255.642 120.533 254.445 119.834 254.744 118.836C254.844 118.537 255.043 118.338 255.243 118.038C256.441 116.143 254.844 113.449 252.648 112.75C250.452 112.052 248.157 112.75 245.961 113.449C242.668 114.446 239.474 115.544 236.18 116.542C234.983 116.941 233.685 117.34 232.388 117.04C231.29 116.841 230.192 116.242 229.194 116.641C227.897 117.34 228.096 119.335 227.298 120.533C226.499 121.73 224.903 122.129 224.104 123.326C223.206 124.723 223.705 126.519 223.605 128.215C223.406 131.408 220.811 133.802 218.515 135.997C216.22 138.192 213.824 141.086 214.423 144.278C214.623 145.276 215.022 146.174 215.122 147.172C215.222 147.97 214.922 148.768 214.723 149.566C214.024 152.061 213.325 154.555 212.727 156.95C215.022 160.941 217.517 164.832 220.212 168.523C221.509 170.319 223.006 172.215 224.903 173.412C226.799 174.709 229.194 175.408 231.39 174.809C232.388 174.51 233.286 174.011 234.284 173.911C235.681 173.811 237.079 174.41 238.476 174.41C240.173 174.31 241.57 173.312 242.867 172.315C244.165 171.317 245.662 170.319 247.259 170.219C248.955 170.219 250.652 171.616 250.353 173.213C250.253 173.612 250.153 173.911 250.153 174.31C250.253 175.108 251.251 175.308 252.049 175.208C252.848 175.108 253.646 174.809 254.345 175.208C255.243 175.707 255.443 177.004 255.043 178.002C254.644 179.399 253.746 180.496 253.047 181.793C252.448 183.09 252.149 184.687 253.047 185.884C253.447 186.482 254.145 186.882 254.744 187.38C255.642 188.179 256.241 189.376 256.64 190.473C258.537 195.362 259.036 200.85 257.938 206.038C257.439 208.333 256.041 210.129 255.542 212.324C255.043 214.718 256.94 217.312 258.037 219.308C259.734 222.301 260.732 225.593 260.932 228.986C261.032 230.383 261.032 231.779 261.63 232.977C262.129 233.875 262.828 234.573 263.527 235.371C266.022 238.364 266.321 242.555 266.521 246.446C267.02 247.144 268.118 247.144 268.916 246.745C269.715 246.346 270.313 245.748 271.112 245.348C273.008 244.351 275.403 244.85 277.499 244.65C281.192 244.251 284.486 241.158 285.084 237.466C285.284 236.469 285.284 235.371 285.683 234.473C286.382 233.076 287.979 232.079 288.178 230.582C288.278 229.983 288.078 229.285 288.278 228.686C288.677 226.791 291.671 226.192 291.871 224.197C291.971 223.299 291.472 222.401 291.073 221.503C289.975 218.909 290.873 215.716 293.168 214.02C293.967 213.421 294.965 213.022 295.863 212.423C299.955 209.53 299.855 203.344 298.159 198.655C297.46 196.859 296.562 194.963 296.761 192.968C296.861 191.671 297.36 190.473 297.959 189.276C299.456 186.383 301.552 183.789 304.047 181.793C305.644 180.496 307.54 179.299 308.538 177.303C309.137 176.106 309.237 174.809 309.736 173.612C310.534 171.417 312.231 169.621 313.628 167.725C315.025 166.129 316.024 163.634 315.125 161.439ZM291.073 209.231C290.973 210.029 290.075 210.827 289.376 210.328C289.376 208.133 288.877 206.038 288.378 203.943C288.178 202.945 287.979 201.947 287.679 200.95C287.579 200.451 287.48 199.952 286.981 199.752C286.681 199.553 286.282 199.652 285.983 199.453C285.583 199.154 285.583 198.455 285.284 198.156C284.785 197.657 283.987 197.857 283.388 197.457C282.789 197.058 282.689 196.36 282.589 195.662L281.691 188.378C281.691 188.079 281.591 187.78 281.791 187.58C281.99 187.281 282.29 187.181 282.589 187.081C283.887 186.582 284.985 185.585 285.583 184.387C285.883 183.888 285.983 183.29 286.382 182.791C287.579 181.095 289.276 181.594 289.476 183.29C289.675 185.585 288.777 185.285 287.48 186.083C286.482 186.682 284.785 187.78 284.086 188.777C283.088 190.374 283.986 190.773 284.685 192.269C285.384 193.666 284.685 195.562 285.783 196.759C286.482 197.557 287.579 197.657 288.378 198.156C289.675 198.954 290.174 200.65 290.274 202.247C290.374 203.843 290.174 205.439 290.574 206.936C290.773 207.634 291.172 208.433 291.073 209.231Z" fill="#525151"/>
<path d="M303.845 212.624C303.047 214.12 304.743 215.916 304.544 217.712C304.444 219.508 302.348 220.605 301.949 222.401C301.749 223.1 301.949 223.898 302.048 224.596C302.348 225.993 302.847 227.29 303.446 228.587C303.645 228.986 303.845 229.386 304.244 229.685C305.242 230.683 307.039 230.284 308.037 229.286C309.035 228.288 309.434 226.891 309.634 225.494C309.833 224.098 309.933 222.701 310.432 221.404C311.23 219.508 313.027 217.912 312.927 215.916C312.827 214.918 312.328 213.921 312.129 212.923C311.929 211.925 312.129 210.628 313.027 210.229C313.127 210.928 313.227 211.526 313.326 212.225C316.021 211.426 312.728 202.646 309.833 207.036C308.636 208.832 309.833 210.03 307.538 211.027C306.44 211.426 304.643 211.227 303.845 212.624Z" fill="#525151"/>
<path d="M505.55 56.4785C505.45 56.1792 505.25 55.9797 505.051 55.7801C503.454 54.2835 501.657 53.0863 499.761 51.9888C500.959 51.889 502.256 51.7892 503.254 51.1906C504.352 50.5919 505.151 49.4944 505.051 48.2972C504.751 46.2019 501.857 45.0047 502.156 43.0092C502.256 42.1112 503.055 41.1135 502.655 40.3153C502.356 39.7167 501.657 39.6169 500.959 39.5171C497.565 39.0183 494.172 38.6192 490.879 38.1203C490.978 39.4174 490.679 40.8142 489.581 41.6124C488.583 42.4106 486.787 42.1112 486.288 40.914C486.088 40.5149 486.088 40.016 485.789 39.6169C485.19 38.8187 483.992 39.3176 483.094 39.6169C481.098 40.4151 478.802 40.4151 476.906 39.6169C476.507 39.4174 476.108 39.2178 475.908 38.8187C475.708 38.2201 476.108 37.6215 476.108 37.0228C476.207 36.0251 475.11 35.1271 474.012 35.0274C473.014 34.9276 471.916 35.3267 470.918 35.7258C468.024 36.6237 464.53 36.8233 462.135 34.9276C461.436 34.3289 460.838 33.6305 460.039 33.1317C458.941 32.4333 457.644 32.3335 456.346 32.1339C453.053 31.8346 449.859 31.4355 446.566 31.1362C446.266 31.1362 445.867 31.0364 445.667 31.236C445.268 31.5353 445.368 32.1339 445.168 32.6328C444.869 33.6305 443.771 34.1294 442.773 34.1294C441.775 34.2292 440.777 33.9298 439.779 34.0296C439.08 34.1294 438.282 34.4287 437.583 34.3289C436.785 34.3289 435.987 33.7303 436.086 33.0319C435.188 33.6305 434.489 34.728 434.489 35.8255C432.593 36.0251 430.198 34.728 430.597 32.8323C430.697 32.3335 430.996 31.9344 430.996 31.4355C431.296 28.4423 423.711 27.7439 422.014 29.041C421.515 29.4401 421.216 29.8392 420.717 30.2382C418.92 31.8346 415.527 31.236 414.429 29.041C411.734 28.7417 409.039 28.7417 406.445 29.041C405.347 27.2451 402.552 28.0432 400.756 29.2405C398.959 30.338 396.364 31.5353 394.967 29.8392C399.458 28.8414 403.85 26.7462 407.443 23.8528C407.842 23.5535 408.241 23.1544 408.141 22.6555C408.041 22.3562 407.842 22.0569 407.542 21.9571C405.846 20.7598 403.75 20.1612 401.754 20.261C400.257 20.261 398.46 20.5603 397.562 19.4628C396.963 18.7644 396.863 17.6669 396.165 17.0682C395.466 16.4696 394.468 16.6691 393.57 16.7689C391.674 17.0682 389.678 17.4673 387.781 17.7666C387.482 17.8664 387.182 17.8664 386.983 18.0659C386.683 18.3653 386.683 18.8641 386.683 19.2632C386.484 21.8573 383.29 23.6532 380.995 22.456C380.296 22.0569 379.697 21.4582 378.899 21.2587C377.901 20.9594 376.903 21.2587 375.905 21.6578C371.912 23.0546 367.92 24.4514 363.928 25.8482C365.026 26.5467 366.423 26.846 367.621 26.4469C368.02 27.1453 367.022 27.7439 366.224 27.8437C363.13 28.4423 360.136 29.1407 357.042 29.7394C358.738 31.0364 360.435 32.4332 362.132 33.9298C362.93 33.3312 363.629 34.8278 363.329 35.7258C363.03 36.6237 362.531 37.821 363.23 38.4196C362.331 38.1203 361.533 37.4219 361.034 36.5239C361.533 36.1249 362.032 35.8255 362.531 35.4264C361.433 35.626 360.335 34.9276 359.936 33.9298C357.94 33.5308 356.143 32.7326 354.547 31.5353C354.247 32.2337 354.646 33.2314 355.445 33.5308C354.746 33.6305 354.048 33.7303 353.249 33.8301C353.449 34.9276 354.447 35.8255 355.644 36.0251C354.247 36.4242 352.65 36.0251 351.453 35.1271C352.551 33.5308 350.954 30.9367 349.057 31.236C350.155 31.3357 350.355 32.9321 349.856 33.9298C349.357 34.9276 348.558 35.8255 348.558 36.923C348.558 38.3199 349.856 39.9162 348.758 40.8142C350.055 41.9117 352.451 39.9162 353.549 41.2133C353.848 41.6124 353.948 42.211 354.048 42.7099C354.447 44.2065 356.143 45.2042 357.641 45.0047C356.742 46.4015 354.646 45.0046 353.748 43.7076C352.75 42.4105 350.654 41.0137 349.856 42.4105C349.556 42.9094 349.656 43.4083 349.656 44.0069C349.556 47.8981 345.065 50.991 341.472 49.5942C342.87 47.8981 346.063 48.5965 347.161 46.7008C347.56 45.9026 347.461 45.0047 347.361 44.1067C346.961 41.2133 346.562 38.3199 346.063 35.4264C346.363 34.1294 346.363 32.7326 346.363 31.4355C344.866 31.9344 342.371 31.9344 342.47 30.338C341.173 32.4333 339.875 34.6283 338.578 36.7235C337.78 38.0205 337.181 40.016 338.578 40.7144C339.476 40.3153 340.574 41.1135 340.774 42.0115C341.073 42.9094 340.674 43.9072 340.275 44.8051C338.378 39.4174 328.498 41.9117 326.003 36.8233C324.805 37.3221 325.903 39.118 327.101 39.5171C328.298 39.9162 329.895 40.7144 329.496 41.9117C329.196 42.8096 327.899 42.8096 326.901 42.8096C324.106 42.6101 321.212 43.3085 318.717 44.7053C318.517 43.7076 318.318 42.7099 318.018 41.7121C315.923 43.2087 313.926 44.6056 311.831 46.1022C310.833 46.8006 309.735 47.499 308.537 47.6985C307.339 47.7983 305.942 47.0999 305.743 45.9026C305.543 44.7053 307.339 43.6078 308.138 44.6056C308.437 42.4106 305.443 40.5149 303.547 41.8119C304.744 43.9072 304.844 46.601 303.647 48.6962C303.247 49.4944 302.549 50.1928 301.651 50.3924C300.752 50.4922 299.754 49.7937 299.954 48.8958C298.856 49.8935 298.257 51.3901 298.257 52.8867C296.461 53.4853 294.265 52.7869 293.167 51.1906C293.267 52.0885 293.467 52.8867 293.566 53.7847C292.269 55.1815 289.375 54.1838 289.275 52.2881C289.275 51.6894 289.375 51.1906 289.375 50.5919C289.375 48.6963 287.678 47.1997 286.081 46.1022C288.377 47.0001 290.772 47.8981 293.067 48.796C294.365 49.2949 295.762 49.7938 297.159 49.4944C299.155 49.0953 300.453 46.4015 298.656 45.0047C295.463 42.5103 291.77 40.6146 287.878 39.5171C286.78 39.2178 285.582 38.9185 284.484 39.3176C283.586 39.6169 282.388 40.2155 281.889 39.4174C282.788 39.5171 283.786 39.2178 284.385 38.5194C282.488 38.1203 280.592 37.821 278.596 37.7212C276.4 39.7167 274.803 42.5103 275.502 45.304C276.5 49.694 282.189 53.2858 280.093 57.2767C282.089 56.8776 284.085 56.3788 285.981 56.8776C286.979 57.1769 287.977 57.7756 288.676 58.5738V58.474C289.275 58.2745 289.874 58.0749 290.473 58.2745C291.071 58.474 291.57 59.0726 291.271 59.6713C291.071 60.0704 290.572 60.3697 290.772 60.7688C290.872 60.9683 291.171 61.0681 291.471 61.1679C292.169 61.3674 292.568 62.2654 292.269 62.9638C291.271 62.864 290.173 62.864 289.175 62.7642C288.876 63.5624 288.377 64.2608 287.977 64.9592C286.58 68.0522 287.578 71.644 287.678 75.1361C287.778 76.932 287.379 78.8277 286.48 80.3243C286.68 80.3243 286.88 80.2245 287.079 80.2245C290.972 79.5261 295.363 80.5238 297.758 83.7166C300.154 86.8095 299.355 92.297 295.662 93.6939C294.265 94.2925 292.668 94.1927 291.371 94.9909C290.872 95.2902 290.473 95.8889 290.273 96.4875C292.668 95.1905 295.064 93.8934 297.758 93.3945C297.159 94.6916 296.062 95.5896 294.664 95.9886C295.064 96.288 294.964 96.9864 294.564 97.2857C294.165 97.585 293.566 97.4852 293.067 97.3855C292.568 97.2857 291.97 97.1859 291.471 97.2857C290.972 97.3855 290.672 97.7846 290.473 98.1836C290.373 98.3832 290.373 98.5827 290.373 98.7823C290.373 98.882 290.373 99.0816 290.473 99.1814C291.87 98.0839 293.966 97.9841 295.363 99.0816C295.862 99.4807 296.361 100.079 296.86 100.478C297.459 100.878 298.357 101.077 298.756 101.676C299.255 102.274 298.856 103.472 298.157 103.372C298.157 103.771 298.557 103.97 298.856 104.07C299.255 104.17 299.654 104.07 299.954 104.27C300.752 104.669 300.553 105.866 299.954 106.465C299.255 106.964 298.357 107.063 297.459 107.063C295.163 107.063 292.868 107.163 290.772 106.165C289.774 105.766 288.876 105.068 287.878 104.769C286.88 104.37 285.682 104.37 284.784 105.068C284.385 105.367 284.185 105.866 283.786 106.165C282.887 106.964 281.39 107.163 280.392 106.465C279.594 105.866 279.195 104.769 279.394 103.771C278.496 104.769 277.698 105.866 277.099 107.063C277.598 108.46 278.097 109.957 278.596 111.354C278.795 111.853 278.895 112.252 279.095 112.75C279.594 114.147 280.392 115.744 281.79 115.843C283.686 115.943 285.482 113.449 286.979 115.744C287.279 116.143 287.379 116.741 287.379 117.24C287.379 118.238 288.776 119.535 289.574 118.737C289.474 118.038 289.375 117.24 289.774 116.542C290.073 115.843 291.071 115.444 291.67 115.943C292.069 116.243 292.169 116.841 292.169 117.34C292.169 118.038 292.169 118.837 292.069 119.535C291.87 121.331 291.171 123.127 289.674 124.025C288.476 124.723 286.88 125.322 287.778 126.818C287.977 127.118 288.876 126.719 289.075 127.118C289.674 127.916 289.275 128.714 289.275 129.612C289.375 131.508 291.57 132.506 292.768 134.002C294.465 136.097 294.065 139.091 294.864 141.685C296.561 146.873 303.048 150.265 302.748 155.653C302.649 157.748 301.551 160.442 303.347 161.639C304.545 162.437 306.142 161.839 307.439 161.24C309.834 160.143 312.33 159.045 314.725 157.848C315.723 157.349 316.721 156.85 317.22 155.952C317.519 155.453 317.519 154.855 317.919 154.456C318.418 153.857 319.416 153.757 320.214 153.458C322.011 152.859 323.208 151.163 324.106 149.467C325.104 147.671 325.803 145.775 326.402 143.78C326.502 143.281 326.701 142.682 326.502 142.184C326.003 140.288 322.609 140.088 322.51 138.093C322.41 137.295 323.009 136.496 323.308 135.698C323.607 134.9 323.308 133.703 322.41 133.803C321.911 135.299 321.412 136.796 320.214 137.893C319.116 138.991 317.22 139.39 316.022 138.492C315.124 137.794 314.825 136.596 314.226 135.599C313.328 134.102 311.531 133.204 310.733 131.707C309.934 130.111 311.132 127.517 312.729 128.215C313.527 131.109 315.523 133.703 318.218 135.199C319.915 134.601 321.412 133.902 322.909 133.004C323.607 132.406 324.605 133.503 324.705 134.501C324.805 135.499 324.605 136.596 325.404 137.195C325.803 137.494 326.302 137.494 326.801 137.494C330.793 137.494 334.785 136.995 338.678 136.097C337.879 138.392 339.975 141.186 342.47 141.086C342.171 142.084 341.173 142.782 340.275 142.782C340.774 143.68 341.273 144.678 342.071 145.276C342.969 145.875 344.267 146.075 344.965 145.276C345.664 144.578 345.764 143.281 346.662 142.882C347.76 142.483 348.758 143.78 348.658 144.877C348.558 146.075 347.86 146.973 347.461 148.07C346.662 150.265 347.361 152.759 348.159 154.954C349.556 159.245 350.954 163.734 353.848 167.326C354.846 166.329 355.844 165.431 356.942 164.433C358.339 164.632 358.339 166.628 357.94 167.925C357.541 169.222 357.042 171.018 358.239 171.816C359.337 172.415 360.734 171.417 361.034 170.22C361.233 169.022 360.734 167.825 360.136 166.628C359.437 165.231 358.738 163.734 358.04 162.338C357.84 161.839 357.541 161.34 357.541 160.741C357.541 160.242 357.84 159.843 358.04 159.444C358.639 158.047 358.838 156.451 358.639 154.954C362.431 153.059 365.525 149.966 367.421 146.274C367.721 145.676 368.02 145.077 368.519 144.778C370.016 143.68 372.611 145.276 374.008 143.88C375.905 144.578 377.501 146.075 378.4 147.871C379.098 149.168 379.697 150.964 381.094 151.063C378.799 151.961 377.302 154.456 377.501 156.85C379.797 157.449 382.292 155.254 382.092 152.959C382.991 152.46 384.188 153.059 384.588 153.957C385.087 154.855 384.987 155.952 384.987 156.95C384.787 160.043 384.588 163.136 384.488 166.129C384.388 167.027 384.388 168.025 384.887 168.823C385.386 169.521 386.284 169.92 386.584 170.719C387.083 171.916 386.085 173.412 386.683 174.51C386.983 175.109 387.681 175.308 388.28 175.807C389.378 176.705 389.777 178.202 390.576 179.399C391.374 180.596 393.27 181.394 394.169 180.197C392.272 178.7 391.075 176.406 390.975 174.011C390.975 173.412 390.975 172.914 390.775 172.415C390.476 171.816 389.877 171.417 389.378 170.918C386.384 168.224 386.783 163.535 387.382 159.544C388.779 161.539 390.975 162.936 393.37 163.435C392.572 165.032 393.27 167.127 394.768 168.025C394.867 166.428 396.065 165.032 397.562 164.632C398.261 164.433 398.959 164.433 399.558 164.134C401.454 163.335 401.654 160.841 401.554 158.846C401.554 158.047 401.454 157.249 401.055 156.551C400.357 155.453 398.859 155.254 397.762 154.555C395.766 153.358 394.768 150.664 395.566 148.469C396.364 146.274 398.859 144.877 401.155 145.376C401.953 145.676 401.554 146.873 400.955 147.372C400.257 147.871 399.359 148.17 399.059 148.968C398.66 150.066 399.957 151.263 401.055 150.964C402.153 150.764 402.951 149.567 402.951 148.369C403.051 147.172 402.652 146.075 402.153 144.977C404.548 145.476 407.243 144.678 408.94 142.782C409.439 142.283 409.838 141.685 410.437 141.286C411.634 140.587 413.331 140.986 414.229 139.989C414.928 139.29 414.928 138.093 415.128 136.995C415.527 135.1 417.024 133.603 417.922 131.907C418.82 130.211 419.619 127.517 419.219 125.621C418.92 124.224 418.122 122.927 417.623 121.63C417.223 120.633 417.024 119.735 416.924 118.637C416.824 118.238 416.824 117.739 417.024 117.44C417.323 116.741 418.221 116.642 418.82 116.243C419.719 115.644 420.218 114.447 419.918 113.349C417.323 114.247 414.329 113.549 412.333 111.653C412.932 110.555 414.229 110.057 415.327 109.458C416.425 108.859 417.623 107.961 417.523 106.664C418.221 106.664 418.92 106.664 419.619 106.664C419.719 107.862 419.12 108.959 418.221 109.658C419.219 110.456 420.617 109.658 421.715 109.059C422.812 108.46 424.709 108.46 424.908 109.757C425.008 110.955 423.212 111.753 423.411 112.95C424.709 112.551 426.106 114.247 425.407 115.444C425.208 115.744 424.908 116.043 425.008 116.442C425.108 116.841 425.607 117.041 426.006 117.24C427.104 117.839 427.603 119.336 427.004 120.433C427.803 119.834 428.501 119.236 429.3 118.637C429.499 119.336 430.298 119.834 430.996 119.635C431.695 119.435 432.194 118.637 431.994 117.939C431.895 117.24 431.196 116.741 430.996 116.143C430.697 115.145 431.396 114.048 431.096 113.05C430.797 112.252 429.998 111.853 429.3 111.354C428.601 110.855 428.002 109.957 428.401 109.258C428.601 108.859 429.2 108.66 429.599 108.36C431.695 107.063 432.194 103.272 434.689 103.172C435.188 103.172 435.687 103.272 436.186 103.272C437.583 103.073 438.082 101.376 438.781 100.079C440.278 97.1859 443.771 95.7891 445.268 92.9955C446.466 90.8004 446.366 88.2063 447.065 85.8118C447.564 84.1156 448.562 82.3197 447.963 80.6236C447.165 78.5284 443.771 78.1293 442.574 79.9252C442.773 78.8277 442.973 77.83 443.172 76.7325C442.374 79.127 437.484 76.932 441.775 74.6372C444.669 73.0408 447.264 70.9456 449.36 68.3515C450.059 67.4536 450.757 66.5556 451.656 65.957C455.049 63.6622 459.74 66.5556 463.732 65.4581C463.832 65.8572 464.031 66.2563 464.131 66.6554C463.033 67.0545 462.035 67.5533 460.937 67.9524C463.233 69.0499 465.628 66.4558 468.123 66.6554C468.822 66.6554 469.92 66.6554 469.92 65.957C469.221 65.8572 468.423 65.4581 468.523 64.8595C468.523 64.6599 468.722 64.4604 468.922 64.2608C469.521 63.5624 470.219 62.864 470.918 62.1656C472.016 60.9683 473.812 59.771 475.01 60.7688C475.908 61.567 475.509 63.3629 474.311 63.5624C475.11 64.3606 476.407 63.6622 477.206 62.864C478.004 62.0658 479.002 61.1679 480 61.567C480.299 60.9683 480.299 60.2699 480 59.6713C480.798 59.1724 481.896 59.0726 482.795 59.3719C482.196 59.8708 481.896 60.4695 481.796 61.2676C481.697 61.7665 481.796 62.1656 481.597 62.6645C481.098 64.3606 478.902 64.5602 477.305 65.2586C474.511 66.5556 473.613 70.1474 471.117 71.9433C470.519 72.3424 469.82 72.7415 469.321 73.2404C468.223 74.4377 468.323 76.3334 468.922 77.8299C469.421 79.3265 470.319 80.8232 470.419 82.5193C470.419 82.8186 470.419 83.1179 470.419 83.4172C470.319 84.5147 471.616 85.1134 472.415 84.3152C472.614 84.1156 472.814 83.9161 473.014 83.7166C473.912 82.8186 474.81 81.9207 475.209 80.7234C475.509 79.9252 475.609 78.8277 476.407 78.4286C477.006 78.1293 477.705 78.229 478.303 78.1293C478.902 78.0295 479.601 77.3311 479.301 76.8322C478.204 76.034 478.403 74.1384 479.601 73.6395C480.1 73.839 480.599 74.1383 481.098 74.3379C482.295 73.839 480.499 71.9434 481.098 70.7461C481.297 70.347 481.896 70.0477 481.896 69.5488C481.896 68.9502 480.998 68.8504 480.399 68.9502C480 66.9547 481.397 64.7597 483.294 64.2608C483.294 64.6599 483.194 65.059 483.194 65.4581C484.192 64.8595 485.09 64.2608 486.088 63.6622C486.288 64.1611 486.387 64.5602 486.587 65.059C487.785 65.6577 488.683 63.0636 489.881 63.4626C490.18 63.5624 490.28 63.762 490.579 63.9615C491.477 64.6599 492.974 64.1611 493.274 63.0636C494.172 58.9729 499.162 58.7733 503.454 58.3742C504.452 57.8754 505.849 57.3765 505.55 56.4785ZM319.416 106.964C318.717 107.562 317.719 107.762 316.721 107.662C316.521 107.862 316.621 108.261 316.921 108.36C317.22 108.56 317.519 108.56 317.719 108.76C318.118 109.159 317.919 109.757 318.018 110.356C318.118 111.254 318.917 111.853 319.116 112.75C319.515 114.247 317.819 115.644 316.222 115.644C312.928 115.644 310.633 113.05 309.834 110.156C309.335 108.56 308.437 104.07 310.932 103.871C310.134 102.873 310.932 101.775 310.533 100.678C310.234 100.079 309.635 99.78 309.236 99.3809C308.337 98.483 308.537 96.8866 309.236 95.8889C309.934 94.8911 311.132 94.1927 312.33 93.7936C313.527 93.2948 314.825 92.9955 315.923 93.4943C317.12 93.9932 317.719 95.5896 316.921 96.4875C316.022 97.4852 314.126 96.8866 313.228 97.9841C312.729 98.5827 312.928 99.6802 313.427 100.279C313.926 100.878 314.725 101.277 315.523 101.576C315.923 101.775 316.422 101.975 316.621 102.374C316.921 102.973 316.322 103.671 316.022 104.27C315.723 104.868 315.723 105.966 316.422 105.966C317.12 105.966 317.22 104.968 317.619 104.469C318.118 103.671 319.515 103.771 320.014 104.569C320.414 105.168 320.114 106.365 319.416 106.964ZM401.355 76.4331C401.255 76.7325 401.055 77.0318 400.955 77.3311C400.856 77.6304 400.856 78.0295 400.756 78.4286C400.456 79.4263 399.558 80.1247 398.66 80.8231C398.061 81.2222 397.462 81.7211 397.063 82.4195C396.963 82.7188 396.764 83.0182 396.664 83.2177C395.766 84.7143 393.171 85.0136 394.867 82.9184C395.865 81.6213 397.362 79.8254 398.66 78.7279C399.059 78.3288 399.658 78.0295 399.858 77.5306C400.357 76.7325 400.057 75.7347 400.057 74.8368C400.057 73.9388 400.756 72.8413 401.654 73.0409C402.053 74.1384 401.953 75.4354 401.355 76.4331ZM289.774 60.3697C289.774 60.4695 289.774 60.5692 289.774 60.669C289.774 61.0681 289.674 61.3674 289.574 61.6667C289.674 61.6667 289.874 61.6667 289.974 61.6667C290.073 61.1679 289.974 60.7688 289.774 60.3697ZM282.887 82.5193C284.584 82.4195 285.782 81.322 286.58 79.9252C285.083 80.2245 283.486 81.0227 282.887 82.5193Z" fill="#525151"/>
<path d="M295.964 93.1946C294.567 93.7932 292.97 93.6935 291.673 94.4917C291.174 94.791 290.775 95.3896 290.575 95.9883C290.375 96.088 290.176 96.1878 289.976 96.2876C286.283 98.3828 287.681 93.7932 284.188 93.7932C280.794 93.7932 281.792 99.4803 280.295 98.9814C279.896 99.8794 280.495 100.877 280.295 101.775C280.195 102.074 279.996 102.374 279.896 102.673C279.796 102.873 279.796 103.072 279.696 103.272C278.798 104.269 278 105.367 277.401 106.564C277.401 106.464 277.301 106.265 277.301 106.165C276.503 105.367 275.006 106.265 274.706 107.362C274.407 108.46 274.906 109.657 275.305 110.755C275.604 111.852 275.704 113.149 274.906 114.047C274.507 114.446 273.808 114.746 274.407 115.743C274.606 116.142 275.105 116.242 275.505 116.142C276.403 116.043 277.201 117.639 276.303 117.739C274.706 117.938 273.509 116.242 273.01 114.746C272.51 113.249 272.211 111.453 270.814 110.555C270.115 110.156 269.217 109.956 268.918 109.158C268.419 107.961 269.916 106.564 269.417 105.367C268.818 104.17 266.922 104.668 265.923 103.771C265.125 103.072 265.225 101.576 264.426 100.877C264.027 100.478 263.428 100.378 262.929 100.179C261.233 99.5801 259.935 98.1833 259.237 96.5869C258.239 96.7864 258.438 98.1833 258.837 98.9814C260.534 102.274 263.329 104.968 266.622 106.664C265.524 107.163 265.025 108.46 264.626 109.557C263.927 111.254 263.329 112.95 262.63 114.646C261.632 114.546 260.534 114.346 259.736 113.748C258.937 113.149 258.438 111.852 259.137 111.054C260.235 112.151 262.43 111.752 263.029 110.356C263.728 108.959 262.63 107.063 261.133 106.863C261.732 105.068 259.736 103.471 257.939 102.773C256.143 102.074 253.947 101.176 253.648 99.2808C252.849 98.5823 251.452 98.8817 250.554 99.5801C249.655 100.278 248.857 101.176 247.859 101.476C246.861 101.875 245.364 101.276 245.364 100.079C244.865 100.578 244.266 100.977 243.767 101.476C244.965 101.775 244.266 103.771 243.168 104.369C242.07 104.968 240.473 105.267 240.174 106.564C240.074 107.063 240.174 107.562 240.174 108.061C240.174 108.859 239.775 109.557 239.475 110.256C238.577 111.952 237.479 113.947 235.483 114.247C234.385 114.446 232.589 114.546 232.789 115.743C231.192 114.346 228.896 113.648 226.8 114.047C226.9 113.049 227.1 112.052 227.2 111.054C226.501 110.954 225.703 110.854 225.004 110.755C226.102 109.158 226.501 107.063 226.102 105.167C225.802 104.07 225.503 102.673 226.601 102.274C226.002 101.775 225.603 101.176 225.403 100.378C226.9 99.6798 228.697 99.6799 230.293 100.179C230.992 100.378 231.591 100.777 232.29 100.977C234.286 101.576 236.681 100.877 237.779 99.181C238.877 97.4848 238.477 94.791 236.681 93.7932C235.683 93.2944 234.585 93.1946 233.687 92.6957C232.789 92.0971 232.29 90.6005 233.188 90.0019C233.986 91.1992 235.683 91.4985 236.881 90.8C236.382 89.9021 236.082 88.8046 236.182 87.7071C236.98 87.4078 238.078 88.206 237.978 89.1039C239.475 89.1039 240.973 88.1062 241.472 86.7094C241.671 86.2105 241.671 85.7116 242.07 85.3125C242.569 84.8137 243.268 84.7139 243.967 84.4146C245.563 83.8159 246.562 81.8205 246.062 80.2241C248.158 79.2264 250.454 78.8273 252.749 78.9271C251.951 77.4305 251.053 75.8341 251.152 74.138C251.252 72.4418 252.65 70.6459 254.346 70.8455C254.646 71.8432 254.546 72.9407 254.346 73.9384C254.845 74.0382 255.344 74.138 255.843 74.2377C254.745 75.1357 253.648 76.8318 254.845 77.7298C255.743 78.4282 257.041 77.5303 258.139 77.7298C258.638 77.8296 259.037 78.1289 259.536 78.3284C261.732 78.9271 263.927 75.2355 265.724 76.5325C266.323 76.9316 266.622 77.8296 267.72 77.7298C268.319 77.63 268.818 77.2309 269.117 76.7321C269.716 75.6346 269.516 74.4373 269.616 73.24C269.716 72.2423 270.215 71.045 271.213 70.8455C272.311 70.5461 273.409 71.4441 274.507 71.5439C276.403 71.7434 277.9 69.1493 276.802 67.553C275.305 68.6505 273.509 69.2491 271.712 69.0496C271.213 68.1516 272.311 67.0541 273.309 66.655C276.702 65.1584 280.595 64.6595 284.188 65.3579C284.886 64.7593 283.888 63.7616 283.09 63.3625C282.291 62.9634 281.393 61.9657 282.092 61.367C279.696 60.3693 277.6 63.7616 275.006 63.8613C272.311 63.9611 270.814 60.4691 271.812 57.9747C272.81 55.4804 275.305 53.9838 277.6 52.6868C276.103 50.2922 272.111 50.0927 270.315 52.3875C270.514 54.1834 269.816 56.1788 268.419 57.3761C267.021 58.5734 264.626 59.7707 265.125 61.5666C265.524 63.1629 268.119 63.9611 267.82 65.5575C267.52 67.0541 265.025 67.0541 264.426 68.5507C264.027 69.5484 264.826 70.8455 264.327 71.8432C263.828 72.8409 262.331 72.8409 261.432 73.5393C260.833 74.0382 260.434 74.7366 259.935 75.2355C259.336 75.7343 258.338 75.9339 257.939 75.3352C257.54 74.7366 258.039 73.9384 258.338 73.1402C259.237 71.045 257.939 68.7502 256.642 66.8545C254.047 66.655 252.749 71.5439 250.354 70.5461C249.655 70.2468 249.256 69.5484 248.957 68.9498C248.059 67.2536 247.061 65.4577 246.661 63.4623C246.362 61.4668 246.661 59.3716 248.059 57.875C249.855 55.9793 252.949 55.8795 254.945 54.1834C257.241 52.2877 257.74 48.7956 260.235 47.1993C261.732 46.2015 263.927 45.7027 264.127 43.9068C262.53 44.0065 260.933 44.2061 259.336 44.3059C260.035 43.0088 261.832 42.3104 263.229 42.7095C262.63 41.4124 264.127 40.0156 265.524 39.8161C266.921 39.6165 268.419 40.0156 269.816 39.6165C270.914 39.3172 271.812 38.4192 272.91 38.0202C273.808 37.6211 274.906 37.5213 275.904 37.4215C277.002 37.3217 278.199 37.3217 279.297 37.4215C277.101 39.417 275.505 42.2106 276.203 45.0043C277.201 49.3943 282.89 52.9861 280.794 56.977C282.79 56.5779 284.786 56.0791 286.683 56.5779C287.681 56.8773 288.679 57.4759 289.377 58.2741C289.278 59.0723 289.876 59.7707 290.276 60.4691C290.276 60.5688 290.276 60.6686 290.276 60.7684C290.276 61.1675 290.176 61.4668 290.076 61.7661C288.379 61.6663 284.487 60.8682 286.383 63.6618C287.182 62.6641 287.581 63.2627 288.579 63.1629C288.978 63.1629 289.377 62.6641 289.178 62.3648C289.377 62.3648 289.577 62.3648 289.876 62.3648C289.577 63.1629 289.078 63.8614 288.679 64.5598C287.281 67.6527 288.28 71.2446 288.379 74.7366C288.479 76.5325 288.08 78.4282 287.182 79.9248C287.381 79.9248 287.581 79.825 287.781 79.825C291.673 79.1266 296.064 80.1243 298.459 83.3171C300.356 86.3103 299.557 91.7978 295.964 93.1946Z" fill="#525151"/>
<path d="M223.403 78.2286C223.403 79.2263 224.301 80.0245 224.102 81.0222C223.802 81.9202 222.505 82.3193 222.505 83.317C222.405 84.4145 223.902 84.8136 225 84.5143C226.896 84.1152 228.693 82.9179 229.79 81.3215C230.289 80.5233 230.589 79.1265 229.591 78.8272C230.888 78.4281 232.086 77.9293 233.383 77.5302C234.381 78.3284 235.379 79.7252 234.581 80.8227C234.082 81.4213 232.785 81.9202 233.184 82.6186C233.383 82.9179 233.783 83.1175 233.783 83.4168C233.882 83.8159 233.483 84.0154 233.284 84.3147C232.086 85.3125 231.387 86.8091 231.487 88.4054C233.284 86.8091 235.679 85.9111 238.074 86.0109C238.673 86.0109 239.272 86.1106 239.671 85.7116C240.07 85.3125 239.871 84.4145 239.372 84.5143C240.07 84.0154 240.769 83.5166 241.368 83.0177C241.567 82.9179 241.667 82.8181 241.767 82.6186C241.966 82.2195 241.567 81.8204 241.168 81.6209C240.769 81.5211 240.27 81.5211 239.871 81.3215C238.972 80.9224 238.873 79.7252 238.573 78.8272C238.274 77.9293 237.176 76.9315 236.477 77.6299C236.677 76.732 236.876 75.834 236.477 74.9361C236.078 74.1379 234.98 73.5393 234.282 74.0381C233.882 73.4395 234.88 72.8408 235.379 72.2422C235.978 71.6436 235.878 70.5461 235.379 70.0472C234.781 69.4486 233.783 69.4486 233.184 70.0472C233.284 68.3511 233.583 66.2558 235.28 65.757C235.679 65.6572 236.178 65.6572 236.677 65.4576C237.076 65.2581 237.575 64.859 237.475 64.4599C237.575 64.9588 238.473 65.0586 238.773 64.5597C239.072 64.1606 239.072 63.4622 238.972 62.9633C237.675 62.5642 237.176 64.7592 235.878 65.1583C235.28 65.3579 234.681 65.1583 234.082 65.3579C232.785 65.9565 233.084 68.3511 231.687 68.7501C231.387 68.8499 230.988 68.7501 230.689 68.9497C230.09 69.249 229.99 70.0472 230.19 70.7456C230.389 71.444 230.589 72.1424 230.289 72.7411C230.09 73.0404 229.79 73.4395 229.89 73.7388C230.09 74.2377 230.788 74.0381 231.188 74.2377C232.385 74.6368 231.687 76.0336 231.088 76.6322C230.289 77.3306 228.992 77.1311 228.094 77.0313C226.597 76.8318 223.403 75.6345 223.403 78.2286Z" fill="#525151"/>
<path d="M253.048 105.965C252.848 105.866 252.749 105.666 252.549 105.566C253.048 105.466 253.347 104.968 253.447 104.369C253.447 103.87 253.248 103.371 252.948 102.972C252.649 102.473 252.05 101.974 251.451 102.174C250.753 102.473 250.653 103.471 250.952 104.269C251.152 104.968 251.551 105.866 251.052 106.564C251.351 106.464 251.651 106.564 251.85 106.764C250.752 107.462 250.553 109.657 252.15 109.757C253.747 109.856 254.046 107.861 252.449 107.462C252.449 107.362 253.048 105.965 253.048 105.965Z" fill="#525151"/>
<path d="M433.992 123.226C434.092 122.329 434.192 121.331 434.89 120.932C435.09 121.53 435.589 122.029 436.088 122.329C436.587 122.029 436.887 121.53 437.186 121.031C437.485 120.533 437.885 120.034 438.483 119.934C439.082 119.834 439.681 120.433 439.382 120.932C440.879 121.53 441.877 119.335 443.174 118.537C443.873 118.138 444.771 118.038 445.569 117.839C446.368 117.639 447.266 117.14 447.366 116.242C447.466 115.743 447.266 115.245 447.166 114.746C447.166 113.748 447.965 112.85 448.464 111.952C449.362 110.356 449.362 108.36 448.564 106.664C448.065 105.766 447.466 104.968 447.166 104.07C446.967 103.072 447.466 101.875 448.464 101.875C448.763 102.673 449.063 103.671 449.961 103.97C450.759 104.27 451.857 103.272 451.258 102.573C452.157 102.274 453.155 102.274 454.153 102.374C454.552 101.775 454.452 100.877 453.953 100.378C456.947 99.281 459.642 97.1857 461.638 94.6914C458.843 96.3875 456.149 98.0837 453.354 99.8796C453.055 100.079 452.656 100.279 452.256 100.179C451.957 100.079 451.757 99.6801 451.558 99.3807C450.859 97.9839 449.262 97.086 447.665 97.086C447.765 98.383 447.965 99.68 448.065 101.077C447.166 100.877 446.268 101.775 446.068 102.673C445.869 103.571 446.068 104.569 446.168 105.567C446.468 108.959 444.871 112.351 442.176 114.347C442.176 113.848 442.176 113.249 442.176 112.75C440.779 112.95 441.378 115.644 440.08 116.342C439.681 116.542 439.282 116.542 438.883 116.542C436.887 116.741 436.887 118.836 434.691 118.038C434.491 120.732 431.098 120.233 431.298 122.927C431.497 125.222 433.593 126.918 433.992 123.226Z" fill="#525151"/>
<path d="M451.857 81.1221C451.857 81.3216 451.957 81.5212 451.857 81.7207C451.757 82.1198 451.557 82.4191 451.358 82.7185C451.158 83.3171 451.557 84.0155 452.057 84.4146C452.556 84.9135 453.055 85.2128 453.354 85.8114C453.853 86.8091 453.454 88.1062 454.252 88.9044C454.053 89.503 453.154 89.3035 452.655 88.9044C452.156 88.5053 451.557 88.1062 451.058 88.4055C450.46 89.3035 450.759 90.5008 451.258 91.4985C451.757 92.4962 452.356 93.4939 452.256 94.5914C452.256 95.0903 451.857 95.6889 451.358 95.5892C451.158 95.5892 451.058 95.3896 450.859 95.2898C450.16 94.5914 449.462 93.893 449.362 92.9951C449.262 92.2967 449.462 91.698 449.661 90.9996C450.06 89.6028 450.06 88.206 449.861 86.8091C449.761 86.2105 449.661 85.6119 449.661 85.0132C449.661 83.9157 450.26 82.6187 449.661 81.7207C449.462 81.4214 449.162 81.1221 449.262 80.8228C449.561 80.2241 450.759 79.2264 451.258 78.7275C451.558 79.5257 451.657 80.3239 451.857 81.1221Z" fill="#525151"/>
<path d="M381.294 175.606C382.192 176.305 383.39 176.804 383.889 177.801C384.288 178.6 384.288 179.597 384.887 180.196C385.186 180.495 385.685 180.695 386.084 180.994C386.883 181.693 386.683 183.089 387.082 184.087C387.681 185.584 389.378 186.382 389.677 187.879C389.777 188.377 389.677 188.976 389.977 189.475C390.376 190.373 391.673 190.572 392.372 191.371C392.671 191.77 392.871 192.169 393.17 192.668C393.969 193.765 395.665 194.164 396.963 193.566C396.564 192.867 396.264 192.069 396.264 191.271C396.264 190.772 396.364 190.273 396.264 189.874C396.065 188.776 394.967 187.978 394.667 186.881C395.166 186.482 395.865 187.08 396.164 187.579C396.564 188.078 397.162 188.677 397.661 188.278C396.663 186.981 395.566 185.883 394.368 184.885C394.468 185.384 393.869 185.683 393.37 185.484C392.971 185.284 392.671 184.885 392.472 184.486C392.272 184.187 392.072 183.888 392.172 183.488C392.172 183.189 392.372 182.89 392.372 182.69C392.472 182.092 392.072 181.493 391.573 181.194C391.074 180.795 390.476 180.595 390.076 180.196C389.178 179.298 389.078 177.801 387.981 177.203C387.481 176.903 386.883 176.903 386.284 176.704C384.687 175.906 384.388 173.511 382.491 172.713C379.896 171.316 379.397 174.11 381.294 175.606Z" fill="#525151"/>
<path d="M397.46 193.666C397.061 194.165 396.661 194.763 396.262 195.262C396.162 195.362 396.062 195.462 396.062 195.661C396.062 196.06 396.661 196.16 397.061 196.06C398.358 195.861 399.556 195.961 400.853 196.26C402.949 196.759 404.945 197.956 407.041 197.756C407.34 197.756 407.64 197.657 408.039 197.756C408.338 197.856 408.738 197.956 409.037 198.056C409.835 198.255 410.734 198.156 411.333 197.756C410.734 197.158 409.835 197.258 409.037 197.158C408.239 197.058 407.34 196.759 407.241 195.96C407.241 195.761 407.241 195.561 407.241 195.362C407.141 194.963 406.642 194.663 406.143 194.663C405.644 194.663 405.244 194.763 404.745 194.663C403.947 194.564 403.448 193.766 402.65 193.666C401.851 193.566 401.552 194.165 400.953 194.165C399.655 194.264 398.657 192.069 397.46 193.666Z" fill="#525151"/>
<path d="M415.521 198.256C416.22 198.256 416.819 198.755 417.517 198.555C417.717 198.455 417.817 198.356 418.016 198.356C418.216 198.356 418.416 198.455 418.615 198.555C420.412 199.353 422.607 196.959 424.404 197.757C424.005 199.553 421.609 200.151 420.711 201.648C422.308 201.448 423.805 200.551 424.903 199.353C425.202 199.054 425.502 198.655 425.801 198.455C426.001 198.355 426.3 198.256 426.5 198.056C426.999 197.757 427.298 197.158 427.298 196.56C426.799 196.56 426.2 196.659 425.701 196.959C425.302 197.158 425.003 197.458 424.603 197.557C423.905 197.757 423.306 197.358 422.607 197.258C421.21 197.058 419.813 198.555 418.515 198.256C418.016 198.156 417.717 197.557 417.118 197.458C416.619 197.358 415.721 197.557 415.222 197.458C414.523 197.358 413.226 196.659 412.727 197.358C411.13 199.453 415.122 198.256 415.521 198.256Z" fill="#525151"/>
<path d="M415.227 200.151C415.526 199.852 416.025 200.051 416.325 200.35C416.624 200.65 416.824 201.049 417.123 201.348C417.522 201.548 418.022 201.548 418.321 201.248C418.521 201.049 418.62 200.849 418.52 200.55C418.421 200.35 418.121 200.251 417.922 200.151C417.722 200.051 417.423 199.951 417.223 199.951C416.824 199.852 416.425 199.652 415.926 199.752C415.526 199.852 415.027 200.151 415.027 200.55" fill="#525151"/>
<path d="M403.748 187.78C402.949 187.88 401.951 187.88 401.652 187.181C401.452 186.782 401.652 186.283 401.652 185.784C401.652 184.986 401.153 184.388 400.853 183.689C400.255 182.492 400.055 181.195 400.255 179.898C400.354 179.599 400.354 179.199 400.654 179C400.754 178.8 400.953 178.701 401.153 178.601C401.851 178.202 402.55 177.803 403.348 177.503C404.247 177.004 405.245 176.506 406.143 175.907C408.339 174.41 410.135 172.415 411.333 170.02C411.732 169.621 412.431 170.02 412.73 170.519C413.029 171.018 413.029 171.716 413.528 172.116C414.127 172.714 415.525 172.914 415.425 173.812C415.425 174.211 415.125 174.41 414.826 174.71C413.928 175.608 413.628 177.004 413.928 178.202C414.227 179.399 415.225 180.397 416.423 180.796C415.325 180.896 413.928 181.295 413.928 182.392C413.928 183.091 414.527 183.789 414.127 184.388C413.728 184.986 412.73 184.687 412.231 185.286C411.832 185.685 412.131 186.383 412.131 186.982C412.331 188.379 411.233 189.875 409.836 190.075C409.237 190.174 408.538 189.975 408.239 189.476C408.039 189.177 408.039 188.877 407.939 188.578C407.44 187.381 406.642 188.079 405.844 188.079C405.145 188.079 404.446 187.68 403.748 187.78Z" fill="#525151"/>
<path d="M424.905 179.399C425.005 179.399 425.205 179.299 425.304 179.299C425.005 179.1 424.706 179.199 424.406 179.399C424.107 179.598 423.907 179.898 423.708 180.097C422.909 180.896 421.811 181.394 420.713 181.295C420.015 181.195 419.316 180.995 418.618 181.095C417.719 181.295 417.121 181.993 416.821 182.891C416.721 183.29 416.821 183.989 417.22 183.889C417.42 183.19 418.119 182.592 418.917 182.392C419.616 182.193 420.514 182.193 421.212 182.292C421.811 182.392 422.41 182.592 423.009 182.492C423.608 182.392 424.207 181.993 424.306 181.394C424.406 180.995 424.107 180.496 424.306 180.097C424.506 179.698 424.905 179.399 424.706 179.1C424.606 179.1 425.105 179.399 424.905 179.399Z" fill="#525151"/>
<path d="M415.524 189.276C415.824 190.573 416.422 191.87 415.923 193.068C416.422 193.267 417.021 192.868 417.221 192.369C417.42 191.871 417.221 191.272 417.121 190.673C417.021 190.174 416.822 189.576 417.021 189.077C417.021 188.977 417.121 188.877 417.221 188.778C417.321 188.778 417.321 188.778 417.42 188.778C418.119 188.977 418.618 189.675 418.818 190.274C419.017 190.973 419.017 191.671 419.117 192.369C419.217 192.768 419.317 193.267 419.716 193.567C420.315 193.966 421.213 193.467 421.413 192.768C421.612 192.07 421.413 191.272 421.313 190.573C421.213 189.576 421.113 188.378 420.215 187.88C419.816 187.68 419.317 187.58 419.217 187.181C419.117 186.682 419.616 186.283 420.115 186.183C420.514 186.084 421.013 185.984 421.413 185.884C421.912 185.784 422.61 185.685 422.71 185.086C422.81 184.487 422.011 184.288 421.512 184.188C420.814 184.088 420.115 183.988 419.516 184.088C418.818 184.188 418.119 184.487 417.82 185.086C417.72 185.186 417.72 185.385 417.52 185.385C417.321 185.485 417.121 185.285 417.021 185.186C416.921 184.986 416.822 184.787 416.722 184.687C415.325 182.791 415.424 188.778 415.524 189.276Z" fill="#525151"/>
<path d="M427.7 188.079C427.002 187.879 426.203 187.879 425.405 188.178C425.305 188.178 425.105 188.278 425.105 188.378C425.105 188.478 425.305 188.577 425.405 188.677C426.103 188.877 426.902 188.777 427.501 188.478C427.401 188.178 427.002 188.079 426.702 188.178" fill="#525151"/>
<path d="M430.894 187.679C430.495 187.48 429.996 187.58 429.696 187.779C429.397 188.079 429.197 188.478 429.397 188.877C430.095 189.076 430.894 188.178 431.592 188.478C432.091 188.677 432.291 189.276 432.79 189.376C433.189 189.376 433.489 188.777 433.289 188.478C433.09 188.178 432.59 188.178 432.391 187.979C431.892 187.58 432.191 186.781 432.59 186.183C431.992 186.083 431.592 186.682 431.493 187.28C431.493 187.58 431.493 187.779 431.293 187.979C431.193 188.178 430.894 188.378 430.694 188.278" fill="#525151"/>
<path d="M427.703 184.188C427.703 184.388 427.703 184.587 427.803 184.787C427.903 184.986 428.102 185.086 428.302 184.986C428.402 184.887 428.502 184.787 428.601 184.587C428.801 184.088 429.001 183.59 428.801 183.091C428.701 182.891 428.502 182.692 428.502 182.492C428.302 181.893 429.001 181.494 429.5 181.594C429.4 180.796 428.701 181.395 428.701 180.497C428.701 180.397 430.198 179.798 429.001 179.599C427.304 179.399 427.803 183.091 427.703 184.188Z" fill="#525151"/>
<path d="M434.492 183.19C433.693 183.29 432.895 183.19 432.296 182.791C431.697 183.29 432.097 184.188 432.695 184.587C433.294 184.986 434.093 185.086 434.691 185.385C435.29 185.684 435.789 186.582 435.39 187.181C435.889 187.281 436.388 187.48 436.887 187.58C436.987 188.079 436.488 188.378 436.089 188.678C435.69 188.977 435.29 189.675 435.789 189.875C435.989 190.274 436.588 190.274 437.087 189.975C437.486 189.775 437.985 189.376 438.384 189.576C438.684 189.675 438.883 189.975 439.083 190.174C439.981 191.072 441.378 191.272 442.576 191.87C443.774 192.469 444.772 193.866 444.173 194.963C443.973 195.362 443.474 195.662 443.175 196.061C442.875 196.46 442.676 196.959 442.875 197.358C443.873 197.458 444.971 197.059 445.77 196.46C446.568 197.358 447.566 198.156 448.764 198.455C449.962 198.755 451.359 198.256 451.858 197.158C451.958 196.959 452.057 196.659 452.157 196.56C452.457 196.36 452.756 196.46 453.155 196.46C454.153 196.759 455.151 197.059 456.05 197.557C456.249 197.657 456.449 197.757 456.549 197.956C456.648 198.256 456.549 198.555 456.449 198.755C456.349 199.752 457.547 200.451 458.644 200.551C460.042 200.75 461.439 200.95 462.936 200.95C462.936 200.251 462.237 199.752 461.539 199.553C460.84 199.353 460.042 199.353 459.543 198.854C458.944 198.256 458.844 197.258 458.245 196.759C457.746 196.36 456.848 196.061 457.048 195.462C457.147 194.764 458.345 194.864 458.545 194.265C458.644 193.866 458.345 193.467 457.946 193.267C457.547 193.167 457.147 193.167 456.748 193.068C455.75 192.868 454.852 191.97 454.752 190.873C454.752 190.474 454.752 190.074 454.652 189.675C454.453 189.077 453.754 188.877 453.155 188.678C450.061 187.68 447.067 186.682 443.973 185.684C443.574 185.585 443.075 185.385 442.576 185.585C441.378 185.984 441.478 188.079 440.281 188.279C439.682 188.378 439.083 187.879 438.684 187.381C438.284 186.882 437.586 186.283 437.586 185.585C437.586 185.086 437.985 184.687 437.985 184.288C437.486 182.891 435.69 183.09 434.492 183.19Z" fill="#525151"/>
<path d="M458.242 192.768C458.342 192.868 458.542 192.968 458.641 192.968C459.939 193.367 461.336 193.168 462.534 192.569C462.933 192.369 463.232 192.17 463.731 192.07C464.031 192.07 464.33 192.07 464.53 192.07C464.829 192.07 465.129 191.87 465.129 191.571C465.228 191.272 465.029 190.973 465.129 190.773C465.328 190.573 465.727 190.673 465.927 190.374C466.127 190.174 465.927 189.775 465.628 189.576C464.729 188.678 463.731 187.68 462.733 186.882C462.634 188.179 463.532 189.576 462.534 190.673C462.035 191.471 457.943 192.27 458.242 192.768Z" fill="#525151"/>
<path d="M470.716 196.759C471.215 196.958 471.714 196.958 472.114 197.158C472.613 197.357 473.012 197.657 473.112 198.155C473.112 198.155 473.112 198.155 473.112 198.056C472.912 196.759 471.714 196.06 470.517 195.462C470.417 195.362 470.217 195.262 470.118 195.162C470.217 195.062 468.621 196.06 470.716 196.759Z" fill="#525151"/>
<path d="M483.99 220.904C483.89 220.406 483.69 219.907 483.391 219.508C483.092 219.109 482.493 218.809 481.994 218.909C481.495 219.907 482.293 221.004 483.191 221.603C483.79 222.002 484.589 222.301 485.287 222.601C484.389 222.7 484.189 221.603 483.99 220.904Z" fill="#525151"/>
<path d="M486.985 211.925C487.384 212.923 487.683 214.02 487.883 215.118C488.382 214.818 488.482 214.02 488.182 213.621C488.581 213.92 488.581 214.519 488.581 214.918C488.781 216.115 489.779 217.213 490.977 217.512C491.176 217.113 490.977 216.714 490.777 216.415C490.478 216.115 490.178 215.916 489.879 215.616C489.28 215.118 488.981 214.319 488.981 213.521C488.981 212.823 489.08 211.925 488.482 211.626C488.382 211.925 488.282 212.224 488.182 212.523C487.983 212.523 487.883 212.324 487.783 212.124C487.384 211.127 487.783 209.63 486.785 208.932C486.685 209.331 486.386 209.83 485.887 209.929C485.887 210.628 486.685 211.226 486.985 211.925Z" fill="#525151"/>
<path d="M474.708 197.059C475.407 197.358 476.305 197.259 476.804 197.758C477.303 198.256 477.203 199.154 477.703 199.853C477.902 200.152 478.201 200.352 478.401 200.551C478.601 200.85 478.701 201.25 478.501 201.549C478.202 201.848 477.603 201.649 477.403 201.25C477.203 200.85 477.203 200.451 477.104 199.953C477.004 199.454 476.904 199.055 476.405 198.855C476.006 198.755 475.507 198.955 475.207 198.655C475.108 198.556 475.108 198.456 475.008 198.256C474.609 197.159 473.211 196.66 473.012 195.562C473.71 196.061 474.01 196.76 474.708 197.059Z" fill="#525151"/>
<path d="M433.885 195.263C433.186 195.861 432.587 196.56 431.988 197.258C432.387 197.458 432.986 197.358 433.286 196.959C433.585 196.56 433.685 196.061 433.386 195.662" fill="#525151"/>
<path d="M438.481 192.369C438.88 192.668 439.279 193.167 439.279 193.666C439.279 194.165 438.78 194.664 438.281 194.564C438.381 193.866 438.481 193.068 438.581 192.369" fill="#525151"/>
<path d="M434.09 203.544C433.691 202.745 432.693 202.446 431.894 202.945C432.493 203.444 432.593 204.541 431.994 205.14C431.695 205.439 431.296 205.639 430.996 205.838C429.898 206.637 429.898 208.532 430.896 209.43C430.397 209.73 429.898 209.929 429.399 210.228C429 208.931 428.002 207.734 426.705 207.235C424.908 208.333 423.611 210.129 423.112 212.124C422.912 212.124 422.713 212.224 422.513 212.224C422.413 212.823 422.313 213.421 422.214 214.02C421.714 213.421 421.615 212.623 421.714 211.925C420.617 212.124 420.018 213.222 419.818 214.319C419.619 215.417 419.319 216.514 418.621 217.213C418.022 217.811 417.323 218.011 416.525 218.21C415.327 218.609 414.229 218.909 413.032 219.308C412.034 219.607 411.035 219.906 410.536 220.804C410.137 221.503 409.838 222.6 409.039 222.501C408.74 222.501 408.441 222.201 408.141 222.101C407.443 221.902 406.844 222.7 406.844 223.398C406.844 224.097 407.143 224.795 407.343 225.394C407.542 226.092 407.542 226.891 406.944 227.389C407.542 227.389 408.241 227.689 408.64 228.188C409.039 228.686 409.039 229.485 408.54 229.983C408.041 230.383 407.143 230.183 407.043 229.485C408.441 233.276 409.439 237.267 410.037 241.358C410.237 243.054 410.437 244.75 409.638 246.246C411.035 247.344 413.032 247.444 414.529 246.546C415.327 246.047 416.026 245.249 416.924 244.85C418.421 244.151 420.317 244.55 421.914 244.051C423.411 243.553 424.609 242.355 426.206 242.156C427.403 241.956 428.701 242.256 429.699 241.657C430.198 241.358 430.497 240.959 430.996 240.559C431.495 240.26 432.094 240.061 432.793 240.061C435.288 239.961 437.783 241.657 438.382 244.051C438.482 244.65 438.581 245.249 438.781 245.847C438.981 246.446 439.579 246.945 440.178 246.845C440.378 244.949 442.074 243.353 443.971 243.453C444.071 244.051 443.671 244.65 443.172 245.049C442.673 245.448 442.174 245.847 441.975 246.346C441.775 246.945 441.975 247.743 442.574 247.743C442.873 247.144 443.272 246.646 443.871 246.246C444.869 247.144 444.37 248.94 443.172 249.339C444.37 248.94 446.067 248.841 446.466 250.038C446.566 250.337 446.566 250.736 446.566 251.135C446.765 252.931 448.662 254.029 450.358 254.827C450.658 255.026 451.057 255.126 451.456 255.027C452.055 254.927 452.454 254.228 452.754 253.729C453.153 253.231 453.851 252.732 454.35 253.131C454.75 253.53 454.55 254.228 454.949 254.627C455.348 255.226 456.346 254.927 456.845 254.328C457.344 253.729 457.644 253.031 458.243 252.632C459.44 251.934 461.536 252.432 461.935 251.135C462.135 250.437 461.536 249.739 461.337 249.04C461.037 247.943 461.736 246.745 462.634 245.947C463.532 245.149 464.53 244.451 465.029 243.353C465.828 241.557 465.029 239.462 465.329 237.466C465.628 235.471 467.225 233.575 466.427 231.779C466.127 231.081 465.429 230.482 465.229 229.784C464.93 229.086 465.029 228.188 464.63 227.589C464.331 227.19 463.832 227.09 463.432 226.791C462.135 225.893 462.135 223.997 461.636 222.501C460.738 219.707 458.143 218.011 456.346 215.716C456.047 215.317 455.748 214.818 455.548 214.319C455.348 213.721 455.448 213.122 455.448 212.423C455.348 210.927 454.45 209.53 453.153 208.732C452.853 208.532 452.554 208.433 452.354 208.133C452.055 207.734 452.055 207.235 452.055 206.736C451.955 204.94 451.256 203.244 450.159 201.947C449.36 205.838 448.562 209.73 447.763 213.521C447.264 213.82 446.765 214.12 446.166 214.12C445.967 213.122 445.667 212.124 445.468 211.126C444.37 211.226 443.172 211.226 442.174 210.727C441.176 210.228 440.478 209.031 440.877 207.934C441.076 207.335 441.675 206.736 441.276 206.238C442.274 206.637 443.172 205.04 442.374 204.242C441.176 203.045 439.979 204.841 438.781 204.741C436.985 204.741 435.687 202.646 434.09 203.544Z" fill="#525151"/>
<path d="M455.249 263.907C455.249 264.206 455.249 264.505 455.449 264.705C455.549 264.805 455.648 264.805 455.748 264.805C456.547 264.904 457.645 264.705 457.944 264.006C458.144 263.408 457.744 262.61 457.944 262.011C458.044 261.811 458.144 261.612 458.243 261.412C458.543 260.914 458.742 260.315 458.543 259.816C458.443 259.317 457.844 258.818 457.345 258.918C457.046 259.018 456.746 259.217 456.447 259.217C455.549 259.417 452.754 257.421 453.054 259.716C453.153 260.415 454.151 261.013 454.451 261.612C455.05 262.31 455.349 263.109 455.249 263.907Z" fill="#525151"/>
<path d="M486.686 267.897C486.087 268.097 485.388 268.197 484.79 268.596C484.291 268.995 483.991 269.893 484.59 270.292C484.989 270.591 485.588 270.491 486.087 270.591C487.185 270.89 487.285 272.387 487.185 273.584C487.983 273.884 488.782 273.285 489.181 272.487C489.58 271.788 489.88 270.89 490.578 270.491C491.077 270.192 491.676 270.092 491.976 269.693C492.475 269.094 492.175 268.197 492.275 267.498C492.674 265.602 495.369 265.503 496.067 263.707C496.566 262.41 497.465 260.015 495.968 259.716C492.275 259.117 489.88 266.8 486.686 267.897Z" fill="#525151"/>
<path d="M498.363 261.013C498.363 261.112 498.363 261.212 498.463 261.312C498.563 261.511 498.962 261.412 499.062 261.312C500.159 260.414 499.461 258.518 500.359 257.421C500.658 257.022 501.058 256.822 501.457 256.523C502.654 255.625 503.353 254.128 503.353 252.632C502.854 252.931 502.255 253.23 501.656 253.33C501.058 253.43 500.359 253.23 499.96 252.731C499.561 252.133 499.66 251.235 499.261 250.636C498.762 249.938 497.764 249.838 497.165 249.14C496.666 248.541 496.566 247.643 496.467 246.845C496.367 246.047 495.968 245.149 495.169 245.049C493.572 246.845 496.666 249.14 497.065 250.636C497.465 252.133 496.666 252.532 496.067 253.729C495.469 255.026 495.069 256.024 496.267 257.022C497.065 257.62 497.664 256.722 498.363 257.92C498.762 258.518 498.363 260.314 498.363 261.013Z" fill="#525151"/>
<path d="M416.524 153.657C416.424 153.956 416.324 154.156 416.324 154.455C416.324 155.353 417.422 155.952 417.422 156.85C417.422 157.249 417.322 157.548 417.322 157.947C417.322 158.346 417.522 158.745 417.921 158.745C418.22 158.745 418.42 158.446 418.719 158.247C418.919 158.047 419.318 157.847 419.518 158.147C419.618 158.247 419.618 158.446 419.618 158.546C419.518 159.544 419.219 160.442 418.819 161.34C419.318 161.539 419.917 161.24 420.217 160.741C420.516 160.242 420.516 159.643 420.616 159.144C420.616 158.845 420.616 158.546 420.516 158.346C420.316 157.947 419.917 157.748 419.618 157.448C419.119 156.85 419.119 155.952 419.418 155.253C419.718 154.555 420.217 153.857 420.516 153.158C420.616 152.959 420.616 152.759 420.616 152.559C420.616 152.36 420.416 152.16 420.416 151.961C420.217 151.462 420.117 150.963 420.017 150.464C419.218 145.775 416.823 152.859 416.524 153.657Z" fill="#525151"/>
<path d="M425.106 160.641C425.205 161.439 424.806 162.337 424.207 162.836C424.108 162.936 423.908 163.035 423.808 163.235C423.509 163.834 424.207 164.332 424.706 164.731C426.303 165.929 426.503 168.623 425.106 170.119C425.006 170.219 424.806 170.419 424.706 170.518C424.607 170.718 424.607 170.917 424.607 171.117C424.607 172.015 424.706 172.813 425.006 173.611C424.207 174.01 423.11 173.312 422.81 172.414C422.511 171.516 422.71 170.518 422.81 169.62C422.91 169.321 422.91 168.922 422.71 168.623C422.411 168.124 421.612 168.224 421.213 168.623C420.814 169.022 420.714 169.62 420.515 170.119C420.315 170.618 420.115 171.217 419.616 171.516C419.217 169.62 420.814 167.625 422.71 167.425C423.109 167.425 423.609 167.425 423.908 167.226C424.307 167.026 424.507 166.428 424.207 166.228C423.808 166.228 423.708 165.729 423.708 165.43C423.708 165.031 423.808 164.632 423.509 164.432C423.209 164.233 422.71 164.432 422.511 164.731C422.311 165.031 422.211 165.43 422.012 165.729C421.712 166.228 421.113 166.527 420.515 166.328C420.515 165.53 421.014 164.632 421.712 164.332C421.014 164.133 420.315 163.734 420.115 163.035C419.816 162.337 420.315 161.439 421.014 161.539C421.313 162.137 421.513 162.836 421.812 163.434C422.311 163.734 423.11 163.434 423.409 162.836C423.708 162.237 423.708 161.539 423.609 160.94C424.307 161.339 425.106 160.341 424.806 159.543C424.607 159.144 424.207 158.845 423.808 158.745C424.706 159.344 425.006 159.942 425.106 160.641Z" fill="#525151"/>
<path d="M318.116 36.8227C318.615 36.5234 318.216 35.6254 317.717 35.4259C317.118 35.2264 316.52 35.4259 315.921 35.4259C315.322 35.4259 314.623 35.1266 314.523 34.5279C314.523 34.3284 314.523 34.1289 314.623 34.0291C315.022 33.0314 316.22 32.6323 317.019 31.9338C318.216 30.7366 318.316 28.8409 319.414 27.5438C320.911 25.7479 323.606 25.6482 325.502 24.2513C326.101 23.8522 326.6 23.2536 327.199 22.8545C328.795 21.8568 330.791 21.9566 332.688 21.9566C335.183 21.8568 337.578 21.3579 339.874 20.46C339.375 22.7547 336.68 23.5529 334.384 24.1516C332.887 24.5506 331.39 24.9497 329.893 25.4486C327.997 26.0472 326.101 26.8454 324.604 28.1425C323.107 29.4395 321.909 31.2354 321.809 33.2309C321.809 34.3284 323.007 36.5234 322.308 37.3216C321.31 38.3193 319.015 37.2218 318.116 36.8227Z" fill="#525151"/>
<path d="M375.802 10.1838C375.203 10.3834 374.704 10.5829 374.105 10.6827C374.604 11.4809 375.702 11.88 376.601 11.5807C377.599 11.2813 378.497 10.3834 379.395 10.7825C379.595 11.1816 379.096 11.6804 378.696 11.88C378.297 12.0795 377.798 12.6782 378.197 13.0773C378.297 13.177 378.397 13.177 378.497 13.2768C380.493 13.8754 382.788 13.3766 384.685 14.2745C385.284 14.5739 385.882 14.9729 386.481 14.9729C387.18 14.9729 387.779 14.075 387.28 13.6759C386.98 13.3766 386.381 13.3766 386.282 12.9775C386.082 12.1793 387.878 11.88 387.479 11.1816C386.182 11.1816 384.884 11.2813 383.587 11.2813C383.188 11.2813 382.589 11.2814 382.389 10.8823C382.289 10.6827 382.289 10.3834 382.19 10.1838C381.99 9.9843 381.691 9.9843 381.391 9.9843C380.693 10.0841 379.994 10.0841 379.295 10.1838C380.792 9.9843 382.788 9.28589 384.285 8.8868C382.289 6.49225 376.501 6.69179 375.802 10.1838Z" fill="#525151"/>
<path d="M393.769 13.3766C393.769 12.5784 392.571 12.1793 391.773 12.5784C390.975 12.9775 390.575 13.6759 390.076 14.3744C389.478 15.1725 388.679 15.8709 387.98 16.5694C389.977 16.27 391.873 16.0705 393.869 15.7712C394.667 15.6714 395.566 15.4719 395.765 14.7734C394.967 14.2746 394.168 13.9753 393.17 13.8755" fill="#525151"/>
<path d="M445.07 25.2498C445.269 25.1501 445.569 24.9505 445.868 24.8507C446.966 24.5514 447.964 26.1478 449.062 25.9482C449.561 25.8485 449.86 25.4494 450.359 25.2498C451.457 24.8507 452.655 25.9482 453.653 25.2498C454.95 24.3519 454.451 23.5537 453.354 23.1546C452.355 22.7555 450.958 23.1546 449.86 22.8553C449.062 22.6557 448.363 22.1569 447.565 21.8575C445.768 21.0594 442.974 19.8621 441.776 22.1569C440.678 24.1523 443.074 26.5469 445.07 25.2498Z" fill="#525151"/>
<path d="M460.839 24.7505C460.041 24.1519 459.142 23.653 458.144 23.3537C458.044 23.3537 457.845 23.2539 457.745 23.2539C457.246 23.2539 456.947 23.9523 457.046 24.4512C457.246 24.9501 457.745 25.2494 458.244 25.3491C458.743 25.4489 459.242 25.3491 459.841 25.3491C460.939 25.2494 462.037 25.3491 463.134 25.6485C463.334 24.95 462.635 24.2516 461.937 24.1519C461.238 24.0521 460.54 24.3514 459.941 24.6507" fill="#525151"/>
<path d="M450.856 28.7418C450.257 28.4425 449.559 28.2429 448.96 28.1431C448.561 28.0434 448.062 28.2429 448.161 28.5422C448.161 28.642 448.361 28.7418 448.461 28.8415C449.359 29.3404 450.357 29.7395 451.355 30.0388C451.854 30.1386 452.453 30.1386 452.653 29.7395C452.752 29.4402 452.553 29.0411 452.253 28.8415C451.655 28.3427 450.756 28.1431 449.958 28.3427" fill="#525151"/>
<path d="M256.436 14.3739C257.334 14.8728 258.332 14.9726 259.23 15.3717C260.228 15.8705 261.026 16.968 261.226 18.0655C261.326 18.764 261.326 19.5621 261.625 20.1608C262.224 21.0587 263.522 21.0587 264.32 20.4601C265.118 19.8615 265.518 18.764 265.518 17.7662C265.518 16.968 265.418 16.0701 265.917 15.4715C266.116 15.2719 266.516 15.0724 266.815 14.9726C267.414 14.773 268.113 14.5735 268.811 14.6733C269.51 14.773 270.109 15.3717 270.109 15.9703C270.109 16.7685 269.21 17.5667 269.51 18.2651C270.807 18.2651 272.105 18.2651 273.402 18.1653C273.801 17.6665 273.502 16.8683 273.003 16.569C272.504 16.1699 271.805 16.1699 271.206 15.8705C270.608 15.5712 270.109 15.0724 270.208 14.3739C270.408 13.476 271.805 13.5758 272.704 13.5758C275.298 13.6755 277.594 11.281 277.494 8.68689C275.199 8.38757 274.101 10.7821 272.205 11.4805C270.608 11.9794 269.809 11.0814 268.412 11.281C266.915 11.3808 266.516 12.3785 265.318 12.6778C263.522 13.0769 262.224 12.1789 260.328 11.9794C258.931 11.8796 252.543 12.0792 256.436 14.3739Z" fill="#525151"/>
<path d="M233.585 3.59866C232.187 6.09298 229.692 7.98866 226.898 8.78685C225.6 9.18594 224.103 9.28571 223.105 10.2834C222.506 10.8821 222.107 11.6803 221.808 12.4785C221.209 13.975 220.51 15.5714 220.51 17.2676C220.51 18.9637 221.209 20.6598 222.706 21.458C220.61 22.4558 220.41 25.9478 222.407 27.1451C221.608 29.1405 218.315 28.043 216.718 29.4399C215.52 30.5374 216.019 32.5328 216.718 34.0294C217.416 35.526 218.414 37.2221 217.816 38.7187C215.62 37.8208 213.324 37.0226 211.129 36.1247C210.33 37.9206 212.726 40.2153 214.422 39.2176C212.726 42.2108 208.234 41.6122 205.041 43.1088C201.647 44.6054 199.851 48.5963 196.458 49.9931C194.761 50.6915 192.865 50.6915 191.168 51.4897C189.471 52.1881 188.074 54.1836 188.872 55.7799C189.072 56.0792 189.272 56.3786 189.272 56.7777C189.272 57.1768 188.872 57.3763 188.573 57.6756C185.878 59.9704 185.779 64.1609 185.978 67.7527C184.98 68.4511 183.583 67.4534 183.084 66.3559C182.585 65.2583 182.285 63.9613 181.287 63.2629C180.289 62.5645 178.892 62.9636 177.794 62.4647C176.796 62.0656 176.098 61.0679 175.499 60.0702C174.401 58.2743 173.303 56.5781 172.205 54.7822C171.307 53.2856 170.309 51.789 170.01 49.9931C169.71 48.297 170.409 46.3015 171.906 45.5033C173.004 44.9047 174.8 44.1065 174.002 43.1088C173.802 42.9092 173.503 42.8094 173.303 42.7097C171.307 42.0112 169.311 41.3128 167.215 40.5147C168.013 38.1201 170.808 36.5237 173.303 37.1224C174.201 35.6258 172.105 34.0294 170.409 34.1292C168.712 34.1292 166.816 34.8276 165.419 33.7301C166.716 31.9342 166.616 29.3401 165.618 27.4444C164.62 25.4489 162.724 24.0521 160.628 23.1542C159.73 22.7551 158.732 22.4558 157.734 22.4558C156.137 22.4558 154.64 23.1542 153.143 23.1542C150.947 23.1542 148.851 21.7573 147.653 19.8617C146.356 18.0657 145.757 15.8707 145.059 13.7755C146.855 14.7732 149.25 14.7732 150.847 13.6757C152.544 12.4784 153.243 9.98412 152.145 8.28798C154.44 7.78912 156.636 7.29025 158.931 6.79139C159.53 6.69162 160.129 6.49207 160.628 6.19275C161.227 5.79366 161.726 5.09525 162.225 4.69616C163.323 3.7982 164.82 3.59866 166.217 3.39911C170.01 3.00002 173.802 2.60093 177.694 2.10206C178.393 2.00229 179.191 1.90252 179.89 2.10206C181.786 2.60093 183.483 4.89571 185.18 3.89798C185.28 3.19957 184.98 2.40138 184.581 1.80274C186.677 0.80501 189.172 1.10433 191.567 1.10433C196.358 1.20411 201.049 0.106604 205.739 0.0068311C210.43 -0.0929419 215.121 0.904785 219.313 2.7007C217.915 3.69843 216.219 4.39684 214.522 4.69616C215.62 4.59639 216.718 4.79593 217.816 5.29479C217.017 4.99548 213.324 7.8889 212.726 8.38776C214.722 9.98413 219.213 6.69162 221.209 5.69389C225.201 3.99775 229.193 2.90025 233.585 3.59866Z" fill="#525151"/>
<path d="M226.397 54.3828C225.299 54.7819 224.301 55.3806 223.403 56.1788C222.604 56.8772 221.706 57.7751 220.608 57.5756C219.51 57.376 219.011 56.1788 218.612 55.181C218.113 54.1833 217.215 53.1856 216.217 53.4849C216.816 52.7865 217.315 52.1878 217.913 51.4894C216.616 51.2899 215.219 51.0903 213.921 50.8908C213.622 50.8908 213.223 50.791 213.023 50.4917C212.524 49.8931 213.223 49.0949 214.021 48.7956C215.718 48.2967 217.514 49.0949 218.712 50.2922C219.211 50.791 219.91 51.3897 220.608 51.1901C221.007 50.9906 221.207 50.4917 221.506 50.0926C222.205 49.1947 223.502 49.0949 224.7 49.1946C226.596 49.3942 230.489 47.9974 231.187 50.2922C231.986 52.8863 227.994 53.7842 226.397 54.3828Z" fill="#525151"/>
<path d="M60.8229 36.7236C55.8327 38.8188 50.5431 40.914 45.1537 40.8143C42.7584 40.8143 40.4629 40.3154 38.1674 39.9163C33.0774 39.0183 27.9874 38.0206 23.2967 35.9254C21.9992 35.3267 20.8016 34.7281 19.4043 34.6283C17.9072 34.5286 16.4102 35.1272 15.0129 35.8256C10.8212 37.9208 7.02864 40.6147 3.83491 44.007C7.22824 44.5059 10.3222 46.5013 12.418 49.1952C10.8212 49.9934 8.6255 49.295 7.82707 47.6986C5.73119 47.0999 3.13628 48.7961 2.93668 50.9911C2.73707 53.1861 4.83295 55.3811 7.12844 55.1816C7.92687 54.1838 9.12451 53.3857 10.422 53.2859C11.0208 54.2836 11.6196 55.3811 12.2184 56.3788C11.1206 57.6759 9.22432 57.7757 7.62746 58.1747C6.0306 58.5738 4.13433 59.6713 4.33393 61.3675C4.63334 64.1611 10.0228 64.3607 9.72334 67.1543C9.82314 66.2564 20.8016 65.4582 15.512 71.7439C14.7135 72.7416 13.4161 73.44 12.1186 73.3402C12.5178 74.338 12.418 75.635 11.6196 76.3334C10.8212 77.0318 9.22432 76.8323 9.02472 75.7348C8.12648 77.5307 5.83099 78.0296 3.83491 78.2291C3.63531 79.0273 3.3359 79.8255 3.13629 80.6237C2.93668 79.6259 1.63923 79.0273 0.740996 79.5262C-0.157238 80.025 -0.257039 81.5216 0.541392 82.1203C1.24002 82.7189 2.33786 82.6191 3.23609 82.4196C3.5355 82.3198 3.93472 82.22 4.13433 81.9207C4.23413 81.7212 4.23413 81.5216 4.23413 81.3221C4.23413 80.2246 5.23217 79.4264 6.23021 79.0273C7.22824 78.6282 8.32609 78.6282 9.32412 78.3289C11.0208 77.9298 12.5178 77.0318 13.9151 75.9343C15.4122 74.7371 16.7096 73.3402 18.4063 72.4423C19.0051 72.143 19.7037 71.8436 20.4023 71.4446C24.9933 68.6509 22.099 63.762 28.7859 62.8641C28.8857 63.762 28.2869 64.7598 27.2888 65.0591C29.4845 66.6555 31.78 61.6668 34.3749 62.5648C35.0735 62.8641 35.5725 63.4627 36.1714 63.9616C37.2692 64.7598 38.8661 64.7598 40.2633 64.8595C45.8523 65.3584 50.9423 69.4491 52.5392 74.8368C54.9345 74.1384 57.0304 76.7325 58.228 78.9275C60.2241 82.6191 62.2202 86.3107 64.2162 90.0023C65.5137 92.2971 66.8111 94.6917 67.41 97.2857C68.3082 100.977 68.0088 104.868 68.907 108.66C69.8052 112.351 72.5997 116.143 76.4921 116.043C77.0909 121.83 78.7876 127.517 81.4823 132.705C80.1848 134.002 82.2807 135.998 84.0772 136.497C85.8737 136.995 88.1691 138.292 87.4705 139.989C89.5664 137.694 86.8717 134.102 84.3766 132.306C81.7817 130.51 78.7876 127.417 80.3844 124.723C81.2827 123.825 82.7797 124.823 83.179 126.02C83.5782 127.218 83.5782 128.614 84.3766 129.512C85.0752 130.311 86.2729 130.51 87.1711 131.109C90.5644 133.104 89.8658 138.791 93.1593 140.986C94.357 141.784 95.9538 141.984 96.9519 142.982C97.6505 143.68 98.0497 144.678 98.5487 145.676C100.245 148.868 103.739 150.664 107.032 152.36C108.03 152.859 108.928 153.358 109.926 153.757C115.416 156.451 120.805 159.245 126.294 161.939C126.793 162.238 127.392 162.438 127.991 162.238C130.187 161.34 125.695 157.349 127.592 155.852C124.897 154.555 122.202 153.258 119.607 151.961C121.304 150.465 121.504 147.671 120.106 145.875C121.104 145.676 121.903 144.778 122.102 143.78C120.905 142.583 118.809 143.58 117.811 144.977C116.913 146.374 116.513 148.17 115.316 149.367C112.521 152.061 107.631 149.168 106.533 145.476C105.435 141.784 106.733 137.893 107.132 134.002C107.331 132.506 107.431 130.71 108.629 129.712C111.423 127.517 115.515 132.107 118.809 130.71C120.007 130.111 120.805 128.814 122.003 128.116C123.999 126.918 126.793 128.016 128.19 129.912C129.588 131.807 129.987 134.202 130.286 136.497C130.985 137.594 132.781 136.397 132.682 135.1C132.582 133.803 131.584 132.905 130.885 131.807C129.089 129.113 129.887 125.023 132.582 123.227C134.977 121.531 138.869 120.932 138.969 118.039C139.069 116.143 137.273 114.646 137.273 112.751C137.173 111.154 138.47 109.757 139.568 108.56C142.862 105.268 146.155 101.975 149.349 98.6826C150.147 97.8844 151.046 97.0862 152.143 97.186C153.241 97.2858 153.84 99.0817 152.842 99.4808C156.734 99.5805 161.824 98.6826 162.124 94.8912C160.527 96.288 158.73 97.2858 156.734 97.8844C156.535 96.0885 157.034 94.1928 158.231 92.6962C156.834 90.2019 153.341 89.5035 150.646 90.4014C147.952 91.2994 145.756 93.2948 143.66 95.1905C146.754 91.4989 151.046 88.406 155.836 87.8073C157.633 87.6078 159.629 87.7075 161.226 86.8096C163.421 85.5125 165.417 82.3198 167.613 83.5171C166.016 86.3107 164.419 89.2041 162.723 91.9978C164.419 91.898 166.216 91.6985 167.912 91.5987C168.611 92.796 169.01 94.1928 168.91 95.5896C171.006 95.4898 174 93.9932 173.002 92.0976C172.503 91.0998 171.206 90.9003 170.407 90.2019C168.112 88.3062 169.908 84.415 168.711 81.6214C168.112 80.2246 166.914 79.3266 165.717 78.3289C160.826 74.338 156.934 69.05 154.638 63.0636C154.04 64.4605 153.441 65.957 152.243 66.855C151.046 67.7529 149.049 67.753 148.251 66.4559C147.852 65.7575 147.852 64.8595 147.652 64.0614C147.153 62.2654 145.457 61.0682 143.76 60.1702C141.864 58.9729 139.568 57.7757 137.372 58.4741C135.177 59.1725 134.678 63.0636 136.973 63.4627C134.877 63.5625 134.977 66.7552 136.175 68.5511C137.372 70.2473 139.069 72.4423 137.871 74.1384C136.873 75.7348 134.279 75.5352 133.28 77.1316C132.282 78.6282 133.38 80.5239 134.079 82.22C134.877 83.8164 134.778 86.4105 133.081 86.7098C131.584 87.0091 130.486 85.313 130.187 83.7166C129.787 81.3221 130.087 78.728 128.989 76.6327C127.891 74.5375 124.298 73.44 123.2 75.635C122.601 73.44 120.805 71.6441 118.709 70.9457C116.913 70.4468 115.016 70.5466 113.32 69.7484C110.825 68.5511 109.727 65.7575 108.829 63.0636C112.122 61.1679 115.515 59.0727 117.012 55.6804C117.412 54.7825 117.611 53.685 118.41 52.9866C119.108 52.3879 120.007 52.1884 120.805 51.5897C121.504 51.0909 122.003 49.8936 121.304 49.295C122.302 48.6963 123.4 48.4968 124.498 48.6963C126.394 51.2904 120.605 55.6804 123.3 57.2768C124.797 58.1748 126.394 56.3788 127.093 54.7825C128.29 55.2813 129.488 55.7802 130.686 56.1793C132.183 54.982 130.386 52.5875 128.689 51.6895C126.893 50.7915 124.697 49.1952 125.596 47.3993C127.192 47.3993 128.789 47.2995 130.286 47.2995C130.386 45.8029 129.388 44.3063 127.991 43.8074C128.789 42.5104 129.588 41.3131 130.386 40.0161C129.688 39.2179 128.49 38.8188 127.392 39.1181C130.586 38.6193 133.68 37.7213 136.574 36.2247C138.969 38.9186 141.165 41.7122 143.261 44.6056C143.56 45.1045 143.959 45.6034 143.959 46.202C143.959 47.499 142.462 47.9979 141.365 48.5966C140.267 49.1952 139.568 51.1906 140.866 51.49C140.666 52.3879 139.269 52.3879 138.57 51.889C137.772 51.3902 137.073 50.592 136.175 50.592C134.378 50.6918 134.678 53.7847 136.374 54.3834C138.071 54.8822 139.768 53.7847 141.265 52.787C144.558 55.7802 148.55 58.075 152.842 59.4718C151.145 59.0727 149.848 57.2768 150.147 55.4809C152.143 56.0795 154.04 56.9775 155.736 58.1747C157.233 56.3788 155.337 53.8845 153.441 52.5875C151.545 51.2904 149.149 49.7938 149.449 47.499C151.944 47.3993 154.439 48.8959 155.637 51.0909C156.535 49.7938 157.533 48.397 158.431 47.1C157.333 43.6079 150.547 44.6056 149.848 41.0138C149.748 40.3154 149.848 39.5172 149.449 38.9186C148.75 38.0206 147.453 38.5195 146.255 38.4197C142.363 38.3199 140.067 31.8347 136.474 33.3313C137.971 30.5376 133.68 26.9458 131.185 28.9413C132.582 29.4401 134.079 30.1385 134.578 31.5354C135.077 32.9322 133.58 34.7281 132.382 34.0297C131.085 33.3313 131.684 31.236 130.985 29.939C130.087 28.3426 127.492 28.642 126.494 30.1386C125.496 31.6351 125.596 33.6306 125.995 35.3267C125.097 35.3267 124.298 35.3267 123.4 35.227C123.2 32.8324 123.699 30.3381 124.797 28.1431C123.799 26.6465 121.504 28.0433 120.406 29.5399C119.208 31.0365 118.01 32.6329 117.711 34.5286C117.312 36.4242 118.11 38.6193 119.907 39.3177C121.005 39.7168 122.402 39.5172 123.5 39.9163C126.095 40.914 125.097 45.8029 122.302 45.7031C121.404 44.3063 120.905 42.6102 120.805 41.0138C119.408 41.4129 118.21 42.1113 117.112 43.0093C115.715 39.617 113.819 36.4242 111.523 33.7304C112.122 32.6329 112.621 31.5354 113.22 30.5376C115.515 31.5354 118.31 29.1408 117.811 26.7463C115.915 26.2474 114.018 25.6488 112.122 26.1476C110.226 26.5467 108.529 28.3426 108.729 30.2383C108.928 31.4356 109.727 32.3335 110.026 33.431C110.326 34.5286 109.627 36.1249 108.529 35.9254C107.93 38.6192 113.719 38.719 114.018 41.5127C114.218 43.5081 111.523 44.2065 109.627 44.2065C110.226 46.1022 110.126 48.1975 109.427 49.9934C107.93 47.1997 108.729 43.5081 111.224 41.5127C109.727 39.2179 106.333 38.5195 104.038 40.0161C104.936 41.3131 106.234 42.3108 107.731 42.7099C106.932 43.6079 106.134 44.5059 105.335 45.5036C103.639 44.3063 101.243 45.2043 99.1476 45.4038C97.0517 45.5036 94.4568 43.2088 95.9538 41.7122C94.6564 40.914 92.9597 40.7145 91.7621 41.5127C90.5644 42.4106 90.4646 44.6056 91.7621 45.2043C88.9676 45.9027 84.2768 40.8142 82.2807 44.7054C80.9833 40.7145 78.9872 39.5172 74.8952 39.3177C72.2005 39.2179 64.316 37.2224 62.9188 39.4174C61.9207 39.5172 60.7231 36.7236 60.8229 36.7236Z" fill="#525151"/>
<path d="M68.2084 26.1471C66.7114 26.3467 65.8131 28.0428 65.6135 29.5394C65.4139 31.036 65.6135 32.7321 64.8151 34.0292C64.6155 34.3285 64.4159 34.6278 64.3161 35.0269C64.1165 36.1244 65.5137 36.8228 66.6116 36.6233C69.7055 36.1244 71.7016 31.934 74.7955 32.4328C74.7955 33.231 74.8953 34.129 74.8953 34.9271C76.8914 34.9271 78.9872 34.6278 80.9833 34.0292C81.5821 34.4283 81.2827 35.426 80.5841 35.7253C79.9853 36.0246 79.1868 35.9249 78.4882 36.0247C77.7896 36.1244 76.9912 36.4237 76.8914 37.2219C78.2886 36.8228 79.6859 36.4237 81.0831 36.7231C82.4804 37.0224 83.7778 38.1199 83.7778 39.6165C81.7817 39.5167 79.7857 39.6165 77.8894 39.816C78.9872 41.1131 80.9833 40.9135 82.5802 41.1131C84.2768 41.3126 86.2729 42.6097 85.6741 44.206C87.9696 41.8115 91.6623 41.0133 94.7562 42.3104C95.5547 42.6097 96.2533 43.0088 97.0517 43.2083C97.8502 43.4079 98.8482 43.2083 99.2474 42.5099C99.7464 41.8115 99.2474 40.6142 98.449 40.714C99.5468 40.6142 100.445 39.7162 100.744 38.7185C98.948 39.3172 96.7523 38.3194 95.9539 36.5235C95.2553 34.9271 95.6545 32.8319 94.4568 31.5349C95.4549 31.8342 96.5527 30.6369 96.2533 29.5394C95.9539 28.4419 94.856 27.8433 93.7582 27.7435C93.0596 27.7435 92.2612 27.943 91.8619 28.5417C91.4627 29.1403 91.5625 30.0383 92.1614 30.4374C91.3629 30.0383 90.4647 29.6392 89.6663 29.2401C89.3668 31.3353 93.359 32.5326 92.4608 34.4283C91.8619 35.6256 89.7661 34.8274 89.5664 33.5303C89.3668 32.6324 89.5664 31.5349 88.768 31.1358C87.271 30.4374 86.1731 34.129 84.6761 33.231C84.7759 32.4328 84.8757 31.5349 84.9755 30.7367C83.0792 30.6369 81.1829 31.2355 79.8855 32.5326C80.0851 31.7344 80.1849 30.9362 80.3845 30.1381C78.3884 29.0406 76.3923 32.9317 74.1967 32.2333C76.2925 32.9317 80.9833 28.841 77.2906 27.1449C76.3923 26.7458 74.5959 27.3444 73.5978 27.3444C71.8014 27.0451 70.0049 25.9476 68.2084 26.1471Z" fill="#525151"/>
<path d="M77.3866 17.5668C75.9894 16.8684 74.1929 17.6666 72.9953 18.6643C71.7976 19.6621 70.7996 21.0589 69.3025 21.7573C68.6039 22.0566 67.8055 22.2562 67.4062 22.8548C69.8015 22.8548 72.1968 22.6552 74.5921 22.3559C74.4923 23.1541 74.0931 23.9523 73.4943 24.4512C74.5921 24.8503 75.5902 23.4534 75.69 22.2561C75.69 21.8571 75.7898 21.458 76.0892 21.2584C76.2888 21.0589 76.688 21.0589 76.9874 21.0589C77.9854 20.8593 78.8837 19.9614 78.7839 18.9636C78.6841 17.9659 77.2868 17.2675 76.4884 17.8661" fill="#525151"/>
<path d="M84.8792 24.2509C85.1786 24.0513 85.3782 23.752 85.2784 23.3529C83.7814 23.3529 82.3841 22.1556 82.1845 20.6591C81.2863 20.1602 79.9888 20.5593 79.6894 21.4572C79.2902 22.3552 79.9888 23.5525 80.9869 23.752C79.5896 24.3506 78.0926 24.9493 76.6953 25.6477C79.4898 27.1443 82.7833 23.8518 85.7775 24.5502C85.7775 24.9493 85.7775 25.2486 85.7775 25.6477C84.48 25.6477 83.1826 26.2463 82.2843 27.2441C84.5798 27.4436 86.8753 26.845 88.8714 25.6477C89.3704 25.3484 89.9692 24.8495 90.568 24.7497C91.1669 24.65 91.6659 24.8495 92.2647 24.9493C93.5621 25.1488 95.2588 24.3507 95.2588 23.0536C94.3606 22.7543 93.3625 22.6545 92.4643 22.7543C92.1649 20.9584 89.9692 19.8609 88.3724 20.6591C88.3724 21.8563 88.9712 23.0536 89.8694 23.8518C88.9712 24.65 87.5739 24.7497 86.4761 24.1511C85.9771 23.8518 85.478 23.4527 84.979 23.4527C84.3802 23.4527 83.5818 23.8518 83.2824 23.3529" fill="#525151"/>
<path d="M86.5714 15.5722C84.2759 15.2728 81.9805 15.6719 79.9844 16.6697C81.0822 17.1685 82.1801 17.6674 83.2779 18.1663C83.5773 18.266 83.7769 18.3658 84.0763 18.3658C84.2759 18.3658 84.5754 18.266 84.775 18.1663C85.8728 17.6674 86.8708 17.2683 87.9687 16.7694C87.7691 16.4701 87.5695 16.2706 87.3699 15.9713C87.8689 16.2706 88.5675 15.8715 88.5675 15.2728C88.5675 14.6742 88.0685 14.1753 87.5695 14.0756C87.0705 13.876 86.4716 13.9758 85.8728 14.1753C85.1742 14.3749 84.5754 14.5744 83.9765 14.774C84.2759 15.4724 84.9746 15.9713 85.6732 16.1708C85.6732 16.4701 85.6732 16.6697 85.6732 16.969" fill="#525151"/>
<path d="M102.341 15.8704C101.842 15.8704 101.543 15.2718 101.543 14.8727C101.543 14.3738 101.642 13.8749 101.343 13.4759C100.744 12.3784 99.1473 13.1765 97.9496 12.977C97.251 12.8772 96.6522 12.3783 95.9536 12.079C95.2549 11.7797 94.3567 11.9793 94.1571 12.6777C93.9575 13.4758 94.8557 14.0745 95.6542 14.0745C96.4526 14.0745 97.251 13.7752 98.0494 14.0745C98.1492 14.0745 98.3488 14.1743 98.4487 14.274C99.0475 15.0722 96.9516 15.5711 97.1512 16.469C97.251 16.9679 97.8498 17.0677 98.249 17.0677C98.9477 17.1675 99.6463 17.1674 100.345 17.2672C101.044 17.367 101.842 17.367 102.441 16.9679C103.04 16.5688 103.04 15.4713 102.341 15.2718" fill="#525151"/>
<path d="M106.031 23.0545C106.43 22.5557 106.23 21.8573 105.731 21.4582C105.232 21.0591 104.534 21.0591 103.935 21.0591C102.139 21.0591 100.342 21.2586 98.6454 21.7575C98.1464 21.8573 97.5476 22.0568 97.0485 21.957C96.5495 21.8573 95.9507 21.3584 96.1503 20.7598C95.4517 21.5579 96.3499 22.9548 97.348 23.2541C98.4458 23.5534 99.5436 23.2541 100.641 23.2541C101.739 23.3539 103.037 24.0523 102.937 25.1498C102.937 25.4491 102.837 25.6486 102.937 25.948C103.037 26.2473 103.436 26.3471 103.735 26.3471C105.232 26.2473 106.33 24.5511 105.831 23.1543C105.432 23.2541 105.133 22.9548 104.933 22.6555C105.632 22.3561 106.131 21.8573 106.23 21.1589C105.033 20.66 103.636 20.8595 102.438 21.4582" fill="#525151"/>
<path d="M105.336 29.2406C105.935 28.8415 105.536 27.6442 104.837 27.4447C104.139 27.2451 103.34 27.6442 102.742 28.0433C102.742 28.642 102.642 29.3404 102.642 29.939C101.943 29.7394 101.145 29.939 100.546 30.3381C101.644 30.6374 102.542 31.5354 102.742 32.6329C101.744 33.3313 100.147 32.8324 99.6476 31.7349C99.448 31.236 99.3482 30.4379 98.8492 30.3381C98.0508 30.0388 97.6516 31.3358 97.951 32.0342C98.8492 33.9299 101.744 33.8301 103.34 35.227C103.939 35.7258 104.837 36.4242 105.237 35.9254C105.636 35.4265 105.137 34.8279 104.638 34.4288C105.237 34.5286 105.835 34.5286 106.335 34.329C106.834 34.1295 107.233 33.431 106.933 32.9322C106.834 32.6329 106.534 32.5331 106.235 32.3336C105.336 31.6351 105.037 30.3381 105.536 29.3404C105.237 29.2406 104.937 29.041 104.638 28.9413" fill="#525151"/>
<path d="M133.481 24.1519C131.585 22.9546 129.089 22.6553 126.894 23.1542C125.297 23.5533 123.8 24.3514 122.203 24.551C119.808 24.7505 117.512 23.2539 116.215 21.2585C118.011 20.0612 120.706 22.4558 122.602 21.3583C123.101 21.0589 123.5 20.4603 124.099 20.2607C124.698 19.9614 125.397 20.0612 125.996 20.2607C129.089 20.7596 132.084 21.3583 135.177 21.8571C135.577 20.5601 134.379 19.0635 133.082 19.0635C134.678 18.4648 136.275 17.7664 137.872 17.1678C138.671 16.8685 139.569 16.4694 139.968 15.6712C140.367 14.873 140.068 13.6757 139.269 13.576C142.962 12.2789 146.555 10.6825 149.948 8.78685C149.649 8.18821 149.25 7.58958 148.95 6.99094C151.346 7.19049 153.741 6.49208 155.637 4.99548C152.943 4.79594 150.348 4.99548 147.753 5.69389C152.144 6.29253 156.735 5.49435 160.727 3.59866C159.33 2.30161 156.635 3.99775 155.238 2.7007C154.839 2.30161 154.639 1.70298 154.14 1.40366C153.641 0.904792 152.843 0.904786 152.144 0.805013C144.958 0.405921 137.772 0.605473 130.587 1.40366C129.389 1.50343 127.892 2.00229 127.892 3.19957C126.195 3.09979 124.498 3.0998 122.702 3.00002C121.504 4.69616 119.009 5.2948 117.113 4.49662C116.714 5.19503 116.215 5.89344 115.816 6.49208C117.013 7.29026 118.51 7.68935 119.908 7.58958C120.806 9.38549 123.7 9.78458 124.998 8.28799C125.596 10.3832 128.69 9.98413 130.487 8.88663C132.283 7.78913 134.678 6.29253 136.375 7.58958C134.08 9.38549 131.185 10.2834 128.291 10.0839C128.99 10.9819 129.688 11.78 130.487 12.678C128.69 12.7778 127.193 11.6803 125.596 10.7823C123.999 9.88435 122.003 9.28572 120.606 10.3832C121.904 11.4807 123.201 12.4785 124.498 13.576C120.906 11.6803 117.412 9.78459 113.819 7.98867C112.821 7.39003 111.524 6.89116 110.426 7.29026C109.328 7.68935 109.029 9.58504 110.127 9.98413C109.229 10.1837 108.53 10.8821 108.23 11.6803C110.326 11.8798 112.422 12.4785 114.319 13.3764C113.42 13.6757 112.522 13.975 111.624 14.2744C113.62 14.9728 115.716 15.5714 117.712 16.2698C118.111 16.3696 118.61 16.5691 119.009 16.3696C119.408 16.1701 119.508 15.6712 119.708 15.2721C120.307 14.1746 122.003 13.6757 123.101 14.3741C122.802 14.9728 122.602 15.5714 122.303 16.1701C123.301 16.1701 124.199 16.1701 125.197 16.1701C125.197 16.6689 125.197 17.2676 125.197 17.7664C126.594 17.966 127.992 17.966 129.389 17.6666C128.89 19.5623 126.195 19.6621 124.498 18.7641C122.802 17.8662 121.504 16.2698 119.608 15.6712C120.207 17.068 121.105 18.2653 122.303 19.1632C119.808 18.7642 117.213 18.9637 114.917 19.8617C114.718 19.3628 114.418 18.8639 114.219 18.3651C112.322 19.1632 112.622 21.9569 113.221 23.9523C113.42 24.551 113.62 25.1496 114.019 25.6485C114.917 26.746 116.514 26.8458 117.911 26.8458C120.007 26.9455 122.103 26.9455 124.199 27.0453C127.193 27.0453 133.581 28.4421 133.481 24.1519Z" fill="#525151"/>
<path d="M110.427 21.8578C111.026 21.4587 112.024 21.758 112.323 21.1594C112.523 20.6605 112.024 20.1617 111.525 19.9621C111.026 19.6628 110.527 19.2637 110.627 18.7648C110.228 18.8646 109.828 18.7648 109.429 18.5653C110.327 18.3658 111.226 18.0664 112.024 17.8669C112.323 17.7671 112.822 17.4678 112.623 17.1685C112.523 17.0687 112.423 17.0687 112.323 16.9689C111.824 16.8692 111.226 16.7694 110.727 16.4701C110.228 16.1708 110.028 15.4723 110.427 15.0732C110.128 15.0732 109.828 14.9735 109.529 14.9735C109.529 14.7739 109.529 14.4746 109.529 14.2751C107.932 14.2751 106.435 14.0755 104.838 13.876C104.639 14.8737 105.637 16.071 106.635 15.8714C106.834 15.8714 107.034 15.7717 107.134 15.8714C107.233 15.9712 107.333 16.1707 107.333 16.2705C107.533 16.6696 108.132 16.8692 108.531 16.6696C108.431 16.9689 108.232 17.2683 107.932 17.4678C108.431 17.7671 109.03 17.8669 109.529 17.9667C109.13 18.3658 108.531 18.5653 108.032 18.6651C108.232 18.8646 108.531 19.0642 108.731 19.2637C108.132 19.2637 107.533 19.2637 106.934 19.2637C106.734 19.8623 107.333 20.3612 107.832 20.5608C108.431 20.7603 111.325 22.656 109.629 23.4542C108.631 23.953 108.232 22.2569 108.531 21.6583C109.13 22.9553 108.93 24.7512 109.928 25.8487C110.627 26.6469 111.725 26.8465 112.423 25.749C113.621 24.0528 110.727 23.4542 110.427 21.8578Z" fill="#525151"/>
<path d="M127.89 165.829C127.191 167.725 129.387 169.82 131.283 169.121C131.782 168.922 132.281 168.523 132.78 168.423C134.377 168.124 135.275 170.119 135.575 171.716C135.974 173.511 136.373 175.407 135.674 177.103C134.876 179.099 132.68 180.595 132.481 182.691C132.281 184.487 133.479 186.282 132.88 187.979C132.58 188.777 131.982 189.375 131.682 190.074C131.183 191.471 131.782 192.967 132.381 194.264C134.377 198.654 136.373 203.044 138.369 207.434C138.868 208.432 139.267 209.43 140.166 210.128C140.864 210.627 141.762 210.926 142.461 211.325C143.659 212.124 144.357 213.321 145.056 214.618C146.353 216.913 147.551 219.208 148.15 221.802C148.848 225.294 148.15 228.885 147.551 232.378C146.553 237.466 145.555 242.554 144.557 247.643C143.459 253.23 142.361 258.917 141.263 264.504C142.461 263.806 143.359 262.609 143.659 261.212C144.257 264.904 143.459 268.695 141.663 271.888C141.463 270.491 141.363 269.094 141.164 267.797C139.766 270.69 139.068 273.983 139.167 277.176C139.167 277.774 139.267 278.373 139.666 278.772C140.066 279.171 140.665 279.271 141.164 279.47C142.261 280.069 142.661 281.466 142.162 282.563C142.76 282.663 143.259 282.863 143.858 282.962C144.756 283.661 142.661 284.659 142.661 285.756C142.661 286.255 143.06 286.554 143.359 286.854C144.956 288.25 146.553 289.647 148.15 291.044C149.248 291.343 150.445 291.742 151.543 291.543C152.641 291.343 153.839 290.545 153.938 289.348C154.038 287.752 152.441 286.754 151.344 285.557C149.747 283.761 149.248 281.067 149.747 278.572C150.146 276.178 151.244 273.883 152.441 271.688C151.743 271.389 151.044 271.189 150.246 270.89C150.345 269.294 151.942 268.296 153.04 266.999C154.936 264.704 154.737 261.012 152.641 259.017C153.439 258.418 154.238 257.919 155.036 257.321C155.735 258.319 156.334 259.416 157.032 260.414C158.629 259.117 159.228 256.722 158.43 254.826C162.122 255.724 166.214 252.731 166.514 248.94C165.615 248.94 164.917 247.842 165.216 247.044C165.516 246.146 166.713 245.847 167.412 246.346C167.013 247.443 168.21 248.541 169.308 248.441C170.406 248.341 171.304 247.343 171.604 246.246C172.003 245.148 172.003 244.051 172.203 242.953C172.502 241.158 173.3 239.461 174.498 238.164C175.496 237.067 176.694 236.069 177.293 234.672C177.692 233.675 177.692 232.477 177.891 231.48C178.49 227.888 181.085 224.795 184.478 223.598C184.578 225.194 187.073 224.895 188.271 223.797C190.067 222.201 191.165 220.006 191.564 217.611C191.864 215.516 191.564 213.321 192.563 211.525C192.962 210.727 193.561 210.028 193.86 209.23C194.06 208.532 193.96 207.734 193.96 206.935C194.159 202.845 198.551 199.652 198.052 195.661C197.752 193.067 195.457 191.171 193.361 189.575C190.167 187.18 186.774 184.686 182.782 184.187C180.287 183.888 177.492 184.387 175.197 183.189C176.195 183.09 176.893 182.092 176.993 181.094C177.093 180.097 176.594 179.099 176.195 178.201C175.895 177.602 175.596 177.004 175.296 176.305C174.099 173.811 172.203 170.818 169.408 171.217C168.61 171.316 167.711 171.716 167.013 171.316C166.414 170.917 166.314 170.019 165.915 169.321C164.518 166.627 159.428 167.725 158.629 164.931C158.43 164.233 158.629 163.235 158.03 162.736C157.631 162.237 156.933 162.237 156.234 162.337C153.34 162.437 150.545 162.536 147.651 162.636C147.551 163.734 146.852 164.831 145.854 165.23C145.954 165.929 146.154 166.527 146.254 167.226C146.054 168.423 144.058 168.224 143.559 167.226C143.06 166.128 143.559 164.831 144.158 163.834C144.756 162.836 145.455 161.738 145.455 160.541C144.158 159.942 142.86 161.239 141.962 162.337C141.064 163.434 139.167 164.332 138.369 163.235C138.469 164.432 138.569 165.629 138.668 166.827C136.872 168.423 133.479 167.725 132.481 165.53C131.782 166.428 130.984 167.326 129.886 167.625C128.788 167.924 127.391 167.226 127.391 166.128C127.989 168.523 130.385 170.419 132.88 170.419" fill="#525151"/>
<path d="M125.293 142.383C126.191 143.281 127.489 141.984 128.786 141.784C129.984 141.684 130.982 142.582 131.88 143.38C132.778 144.179 134.176 144.877 135.074 144.079C135.473 145.975 138.068 146.872 139.565 145.675C139.465 146.374 140.264 146.773 140.962 146.673C141.661 146.573 142.16 146.174 142.858 146.074C143.856 145.975 144.755 146.872 144.755 147.77C144.755 148.17 144.256 148.269 143.956 148.169C143.657 148.07 143.258 147.87 142.958 148.07C142.759 148.17 142.659 148.469 142.559 148.668C142.06 149.367 140.862 149.167 140.064 148.868C139.166 148.569 137.968 148.469 137.669 149.367C140.363 149.866 143.158 149.866 145.853 149.267C145.653 149.467 145.753 149.866 146.052 149.965C146.352 150.065 146.651 150.065 146.95 149.965C148.048 149.666 149.246 149.467 150.344 149.167C151.042 149.566 151.941 149.566 152.639 149.167C152.639 149.467 152.539 149.766 152.539 150.065C153.837 150.664 155.633 150.065 156.332 148.868C154.436 148.569 152.539 148.269 150.643 147.97C149.246 147.77 147.849 147.471 146.751 146.773C145.553 146.074 144.655 144.977 143.357 144.578C141.561 143.979 139.465 144.877 137.768 144.179C136.072 143.48 134.974 141.385 133.177 141.285C132.579 141.285 131.98 141.485 131.381 141.285C129.984 140.687 130.183 139.389 128.387 139.988C127.788 140.287 125.592 142.682 125.293 142.383Z" fill="#525151"/>
<path d="M277.296 106.564C276.398 108.36 275.999 110.356 276.398 112.252C276.997 115.644 279.592 118.737 278.893 122.029C277.796 121.73 276.598 121.431 275.5 121.131" fill="#525151"/>
<path d="M289.571 61.666C289.471 61.8656 289.371 62.0651 289.371 62.2647L289.571 61.666Z" fill="#525151"/>
<path d="M289.773 60.3688C289.773 59.5706 289.374 58.7725 288.875 58.1738L289.773 60.3688Z" fill="#525151"/>
</svg>
