<svg width="1145" height="623" viewBox="0 0 1145 623" fill="none" xmlns="http://www.w3.org/2000/svg">
<g filter="url(#filter0_ii_0_207)">
<path fill-rule="evenodd" clip-rule="evenodd" d="M766.677 506.615C760.779 582.113 788.697 659.578 850.433 714.629C945.2 798.779 1090.69 797.992 1184.67 711.877C1290.84 615.144 1293.6 450.384 1193.32 350.112C1139.06 296.241 1066.71 271.861 995.926 277.759C987.668 278.152 979.017 279.332 970.76 280.905C964.468 282.871 958.57 284.444 952.278 285.23C912.563 291.129 870.488 278.939 839.816 248.267C827.233 235.684 817.796 221.528 811.504 206.193C806.393 194.789 804.033 182.599 802.854 170.016L802.853 170.015C802.46 166.477 802.067 162.938 801.281 159.399C798.528 144.85 793.416 130.694 785.552 117.324C780.047 108.28 772.969 99.2362 765.104 91.3718C713.199 39.0732 628.263 40.2528 577.144 94.1243C531.137 142.884 529.957 220.349 574.391 270.288C583.829 281.298 594.839 289.949 606.242 296.634C619.612 304.498 633.768 309.61 648.317 312.363C651.856 313.149 655.395 313.542 658.933 313.936L658.934 313.936C671.124 315.509 683.707 317.868 695.111 322.587C710.446 328.878 724.602 338.315 737.185 350.899C766.284 379.604 778.867 419.319 774.935 457.069C774.673 459.69 774.061 462.312 773.449 464.933C773.143 466.244 772.838 467.555 772.575 468.865C771.396 473.191 770.609 477.123 769.823 481.448C768.643 489.706 767.464 498.357 766.677 506.615ZM499.788 134.493C505.686 58.994 477.768 -18.4708 416.032 -73.5219C321.265 -157.671 175.773 -156.885 81.7925 -70.7693C-24.3776 25.9634 -27.13 190.724 73.1416 290.995C127.406 344.867 199.759 369.246 270.539 363.348C278.797 362.955 287.448 361.775 295.706 360.202C301.997 358.236 307.895 356.663 314.187 355.877C353.902 349.979 395.977 362.169 426.649 392.84C439.232 405.423 448.669 419.579 454.961 434.915C460.072 446.318 462.432 458.508 463.611 471.091L463.612 471.093C464.005 474.631 464.398 478.17 465.184 481.708C467.937 496.257 473.049 510.413 480.913 523.783C486.418 532.827 493.496 541.871 501.361 549.736C553.266 602.034 638.202 600.855 689.321 546.983C735.328 498.223 736.508 420.759 692.074 370.819C682.636 359.809 671.626 351.158 660.223 344.473C646.853 336.609 632.697 331.497 618.148 328.745C614.609 327.958 611.07 327.565 607.532 327.172L607.531 327.172C595.341 325.599 582.758 323.239 571.354 318.521C556.019 312.229 541.863 302.792 529.28 290.209C500.181 261.504 487.598 221.788 491.53 184.039C491.792 181.417 492.404 178.796 493.016 176.175C493.322 174.864 493.627 173.553 493.89 172.242C495.069 167.917 495.856 163.984 496.642 159.659C497.822 151.401 499.002 142.75 499.788 134.493ZM948.185 251.293C887.321 251.293 837.98 201.953 837.98 141.088C837.98 80.2233 887.321 30.8828 948.185 30.8828C1009.05 30.8828 1058.39 80.2233 1058.39 141.088C1058.39 201.953 1009.05 251.293 948.185 251.293ZM220.84 503.19C220.84 564.054 270.18 613.395 331.045 613.395C391.909 613.395 441.25 564.054 441.25 503.19C441.25 442.325 391.909 392.984 331.045 392.984C270.18 392.984 220.84 442.325 220.84 503.19Z" fill="url(#paint0_radial_0_207)"/>
<path fill-rule="evenodd" clip-rule="evenodd" d="M766.677 506.615C760.779 582.113 788.697 659.578 850.433 714.629C945.2 798.779 1090.69 797.992 1184.67 711.877C1290.84 615.144 1293.6 450.384 1193.32 350.112C1139.06 296.241 1066.71 271.861 995.926 277.759C987.668 278.152 979.017 279.332 970.76 280.905C964.468 282.871 958.57 284.444 952.278 285.23C912.563 291.129 870.488 278.939 839.816 248.267C827.233 235.684 817.796 221.528 811.504 206.193C806.393 194.789 804.033 182.599 802.854 170.016L802.853 170.015C802.46 166.477 802.067 162.938 801.281 159.399C798.528 144.85 793.416 130.694 785.552 117.324C780.047 108.28 772.969 99.2362 765.104 91.3718C713.199 39.0732 628.263 40.2528 577.144 94.1243C531.137 142.884 529.957 220.349 574.391 270.288C583.829 281.298 594.839 289.949 606.242 296.634C619.612 304.498 633.768 309.61 648.317 312.363C651.856 313.149 655.395 313.542 658.933 313.936L658.934 313.936C671.124 315.509 683.707 317.868 695.111 322.587C710.446 328.878 724.602 338.315 737.185 350.899C766.284 379.604 778.867 419.319 774.935 457.069C774.673 459.69 774.061 462.312 773.449 464.933C773.143 466.244 772.838 467.555 772.575 468.865C771.396 473.191 770.609 477.123 769.823 481.448C768.643 489.706 767.464 498.357 766.677 506.615ZM499.788 134.493C505.686 58.994 477.768 -18.4708 416.032 -73.5219C321.265 -157.671 175.773 -156.885 81.7925 -70.7693C-24.3776 25.9634 -27.13 190.724 73.1416 290.995C127.406 344.867 199.759 369.246 270.539 363.348C278.797 362.955 287.448 361.775 295.706 360.202C301.997 358.236 307.895 356.663 314.187 355.877C353.902 349.979 395.977 362.169 426.649 392.84C439.232 405.423 448.669 419.579 454.961 434.915C460.072 446.318 462.432 458.508 463.611 471.091L463.612 471.093C464.005 474.631 464.398 478.17 465.184 481.708C467.937 496.257 473.049 510.413 480.913 523.783C486.418 532.827 493.496 541.871 501.361 549.736C553.266 602.034 638.202 600.855 689.321 546.983C735.328 498.223 736.508 420.759 692.074 370.819C682.636 359.809 671.626 351.158 660.223 344.473C646.853 336.609 632.697 331.497 618.148 328.745C614.609 327.958 611.07 327.565 607.532 327.172L607.531 327.172C595.341 325.599 582.758 323.239 571.354 318.521C556.019 312.229 541.863 302.792 529.28 290.209C500.181 261.504 487.598 221.788 491.53 184.039C491.792 181.417 492.404 178.796 493.016 176.175C493.322 174.864 493.627 173.553 493.89 172.242C495.069 167.917 495.856 163.984 496.642 159.659C497.822 151.401 499.002 142.75 499.788 134.493ZM948.185 251.293C887.321 251.293 837.98 201.953 837.98 141.088C837.98 80.2233 887.321 30.8828 948.185 30.8828C1009.05 30.8828 1058.39 80.2233 1058.39 141.088C1058.39 201.953 1009.05 251.293 948.185 251.293ZM220.84 503.19C220.84 564.054 270.18 613.395 331.045 613.395C391.909 613.395 441.25 564.054 441.25 503.19C441.25 442.325 391.909 392.984 331.045 392.984C270.18 392.984 220.84 442.325 220.84 503.19Z" fill="#302F2F"/>
</g>
<defs>
<filter id="filter0_ii_0_207" x="-18.3594" y="-160.632" width="1311.18" height="969.857" filterUnits="userSpaceOnUse" color-interpolation-filters="sRGB">
<feFlood flood-opacity="0" result="BackgroundImageFix"/>
<feBlend mode="normal" in="SourceGraphic" in2="BackgroundImageFix" result="shape"/>
<feColorMatrix in="SourceAlpha" type="matrix" values="0 0 0 0 0 0 0 0 0 0 0 0 0 0 0 0 0 0 127 0" result="hardAlpha"/>
<feOffset dx="-18.3516" dy="32.1153"/>
<feGaussianBlur stdDeviation="38.9971"/>
<feComposite in2="hardAlpha" operator="arithmetic" k2="-1" k3="1"/>
<feColorMatrix type="matrix" values="0 0 0 0 1 0 0 0 0 1 0 0 0 0 1 0 0 0 0.87 0"/>
<feBlend mode="lighten" in2="shape" result="effect1_innerShadow_0_207"/>
<feColorMatrix in="SourceAlpha" type="matrix" values="0 0 0 0 0 0 0 0 0 0 0 0 0 0 0 0 0 0 127 0" result="hardAlpha"/>
<feOffset dx="26.35" dy="-24.63"/>
<feGaussianBlur stdDeviation="15.3705"/>
<feComposite in2="hardAlpha" operator="arithmetic" k2="-1" k3="1"/>
<feColorMatrix type="matrix" values="0 0 0 0 0.168627 0 0 0 0 0.180392 0 0 0 0 0.239216 0 0 0 0.9 0"/>
<feBlend mode="multiply" in2="effect1_innerShadow_0_207" result="effect2_innerShadow_0_207"/>
</filter>
<radialGradient id="paint0_radial_0_207" cx="0" cy="0" r="1" gradientUnits="userSpaceOnUse" gradientTransform="translate(1369.84 173.432) rotate(178.087) scale(479.64 899.949)">
<stop stop-color="#949494"/>
<stop offset="0.635171" stop-color="#282828"/>
<stop offset="1" stop-color="#1D1D1D"/>
</radialGradient>
</defs>
</svg>
